<svg xmlns="http://www.w3.org/2000/svg" version="1.1" xmlns:xlink="http://www.w3.org/1999/xlink" xmlns:svgjs="http://svgjs.com/svgjs" width="524" height="524" viewBox="0 0 524 524" fill="#ffffff"><path d="M136.24 40.24H147.76000000000002V51.760000000000005H136.24V40.24Z " fill="#000000" opacity="1"></path><path d="M148.24 40.24H159.76000000000002V51.760000000000005H148.24V40.24Z " fill="#000000" opacity="1"></path><path d="M160.24 40.24H171.76000000000002V51.760000000000005H160.24V40.24Z " fill="#000000" opacity="1"></path><path d="M184.24 40.24H195.76000000000002V51.760000000000005H184.24V40.24Z " fill="#000000" opacity="1"></path><path d="M196.24 40.24H207.76000000000002V51.760000000000005H196.24V40.24Z " fill="#000000" opacity="1"></path><path d="M256.24 40.24H267.76V51.760000000000005H256.24V40.24Z " fill="#000000" opacity="1"></path><path d="M268.24 40.24H279.76V51.760000000000005H268.24V40.24Z " fill="#000000" opacity="1"></path><path d="M292.24 40.24H303.76V51.760000000000005H292.24V40.24Z " fill="#000000" opacity="1"></path><path d="M304.24 40.24H315.76V51.760000000000005H304.24V40.24Z " fill="#000000" opacity="1"></path><path d="M352.24 40.24H363.76V51.760000000000005H352.24V40.24Z " fill="#000000" opacity="1"></path><path d="M364.24 40.24H375.76V51.760000000000005H364.24V40.24Z " fill="#000000" opacity="1"></path><path d="M148.24 52.24H159.76000000000002V63.760000000000005H148.24V52.24Z " fill="#000000" opacity="1"></path><path d="M184.24 52.24H195.76000000000002V63.760000000000005H184.24V52.24Z " fill="#000000" opacity="1"></path><path d="M268.24 52.24H279.76V63.760000000000005H268.24V52.24Z " fill="#000000" opacity="1"></path><path d="M280.24 52.24H291.76V63.760000000000005H280.24V52.24Z " fill="#000000" opacity="1"></path><path d="M292.24 52.24H303.76V63.760000000000005H292.24V52.24Z " fill="#000000" opacity="1"></path><path d="M304.24 52.24H315.76V63.760000000000005H304.24V52.24Z " fill="#000000" opacity="1"></path><path d="M328.24 52.24H339.76V63.760000000000005H328.24V52.24Z " fill="#000000" opacity="1"></path><path d="M340.24 52.24H351.76V63.760000000000005H340.24V52.24Z " fill="#000000" opacity="1"></path><path d="M352.24 52.24H363.76V63.760000000000005H352.24V52.24Z " fill="#000000" opacity="1"></path><path d="M364.24 52.24H375.76V63.760000000000005H364.24V52.24Z " fill="#000000" opacity="1"></path><path d="M148.24 64.24000000000001H159.76000000000002V75.76H148.24V64.24000000000001Z " fill="#000000" opacity="1"></path><path d="M172.24 64.24000000000001H183.76000000000002V75.76H172.24V64.24000000000001Z " fill="#000000" opacity="1"></path><path d="M184.24 64.24000000000001H195.76000000000002V75.76H184.24V64.24000000000001Z " fill="#000000" opacity="1"></path><path d="M196.24 64.24000000000001H207.76000000000002V75.76H196.24V64.24000000000001Z " fill="#000000" opacity="1"></path><path d="M208.24 64.24000000000001H219.76000000000002V75.76H208.24V64.24000000000001Z " fill="#000000" opacity="1"></path><path d="M244.24 64.24000000000001H255.76000000000002V75.76H244.24V64.24000000000001Z " fill="#000000" opacity="1"></path><path d="M256.24 64.24000000000001H267.76V75.76H256.24V64.24000000000001Z " fill="#000000" opacity="1"></path><path d="M268.24 64.24000000000001H279.76V75.76H268.24V64.24000000000001Z " fill="#000000" opacity="1"></path><path d="M292.24 64.24000000000001H303.76V75.76H292.24V64.24000000000001Z " fill="#000000" opacity="1"></path><path d="M316.24 64.24000000000001H327.76V75.76H316.24V64.24000000000001Z " fill="#000000" opacity="1"></path><path d="M328.24 64.24000000000001H339.76V75.76H328.24V64.24000000000001Z " fill="#000000" opacity="1"></path><path d="M364.24 64.24000000000001H375.76V75.76H364.24V64.24000000000001Z " fill="#000000" opacity="1"></path><path d="M376.24 64.24000000000001H387.76V75.76H376.24V64.24000000000001Z " fill="#000000" opacity="1"></path><path d="M136.24 76.24000000000001H147.76000000000002V87.76H136.24V76.24000000000001Z " fill="#000000" opacity="1"></path><path d="M196.24 76.24000000000001H207.76000000000002V87.76H196.24V76.24000000000001Z " fill="#000000" opacity="1"></path><path d="M232.24 76.24000000000001H243.76000000000002V87.76H232.24V76.24000000000001Z " fill="#000000" opacity="1"></path><path d="M244.24 76.24000000000001H255.76000000000002V87.76H244.24V76.24000000000001Z " fill="#000000" opacity="1"></path><path d="M292.24 76.24000000000001H303.76V87.76H292.24V76.24000000000001Z " fill="#000000" opacity="1"></path><path d="M316.24 76.24000000000001H327.76V87.76H316.24V76.24000000000001Z " fill="#000000" opacity="1"></path><path d="M328.24 76.24000000000001H339.76V87.76H328.24V76.24000000000001Z " fill="#000000" opacity="1"></path><path d="M352.24 76.24000000000001H363.76V87.76H352.24V76.24000000000001Z " fill="#000000" opacity="1"></path><path d="M364.24 76.24000000000001H375.76V87.76H364.24V76.24000000000001Z " fill="#000000" opacity="1"></path><path d="M148.24 88.24000000000001H159.76000000000002V99.76H148.24V88.24000000000001Z " fill="#000000" opacity="1"></path><path d="M160.24 88.24000000000001H171.76000000000002V99.76H160.24V88.24000000000001Z " fill="#000000" opacity="1"></path><path d="M196.24 88.24000000000001H207.76000000000002V99.76H196.24V88.24000000000001Z " fill="#000000" opacity="1"></path><path d="M220.24 88.24000000000001H231.76000000000002V99.76H220.24V88.24000000000001Z " fill="#000000" opacity="1"></path><path d="M244.24 88.24000000000001H255.76000000000002V99.76H244.24V88.24000000000001Z " fill="#000000" opacity="1"></path><path d="M256.24 88.24000000000001H267.76V99.76H256.24V88.24000000000001Z " fill="#000000" opacity="1"></path><path d="M340.24 88.24000000000001H351.76V99.76H340.24V88.24000000000001Z " fill="#000000" opacity="1"></path><path d="M352.24 88.24000000000001H363.76V99.76H352.24V88.24000000000001Z " fill="#000000" opacity="1"></path><path d="M364.24 88.24000000000001H375.76V99.76H364.24V88.24000000000001Z " fill="#000000" opacity="1"></path><path d="M376.24 88.24000000000001H387.76V99.76H376.24V88.24000000000001Z " fill="#000000" opacity="1"></path><path d="M172.24 100.24000000000001H183.76000000000002V111.76H172.24V100.24000000000001Z " fill="#000000" opacity="1"></path><path d="M196.24 100.24000000000001H207.76000000000002V111.76H196.24V100.24000000000001Z " fill="#000000" opacity="1"></path><path d="M220.24 100.24000000000001H231.76000000000002V111.76H220.24V100.24000000000001Z " fill="#000000" opacity="1"></path><path d="M268.24 100.24000000000001H279.76V111.76H268.24V100.24000000000001Z " fill="#000000" opacity="1"></path><path d="M280.24 100.24000000000001H291.76V111.76H280.24V100.24000000000001Z " fill="#000000" opacity="1"></path><path d="M316.24 100.24000000000001H327.76V111.76H316.24V100.24000000000001Z " fill="#000000" opacity="1"></path><path d="M328.24 100.24000000000001H339.76V111.76H328.24V100.24000000000001Z " fill="#000000" opacity="1"></path><path d="M352.24 100.24000000000001H363.76V111.76H352.24V100.24000000000001Z " fill="#000000" opacity="1"></path><path d="M364.24 100.24000000000001H375.76V111.76H364.24V100.24000000000001Z " fill="#000000" opacity="1"></path><path d="M376.24 100.24000000000001H387.76V111.76H376.24V100.24000000000001Z " fill="#000000" opacity="1"></path><path d="M160.24 124.24H171.76000000000002V135.76H160.24V124.24Z " fill="#000000" opacity="1"></path><path d="M196.24 124.24H207.76000000000002V135.76H196.24V124.24Z " fill="#000000" opacity="1"></path><path d="M208.24 124.24H219.76000000000002V135.76H208.24V124.24Z " fill="#000000" opacity="1"></path><path d="M220.24 124.24H231.76000000000002V135.76H220.24V124.24Z " fill="#000000" opacity="1"></path><path d="M232.24 124.24H243.76000000000002V135.76H232.24V124.24Z " fill="#000000" opacity="1"></path><path d="M244.24 124.24H255.76000000000002V135.76H244.24V124.24Z " fill="#000000" opacity="1"></path><path d="M280.24 124.24H291.76V135.76H280.24V124.24Z " fill="#000000" opacity="1"></path><path d="M292.24 124.24H303.76V135.76H292.24V124.24Z " fill="#000000" opacity="1"></path><path d="M328.24 124.24H339.76V135.76H328.24V124.24Z " fill="#000000" opacity="1"></path><path d="M376.24 124.24H387.76V135.76H376.24V124.24Z " fill="#000000" opacity="1"></path><path d="M64.24000000000001 136.24H75.76V147.76000000000002H64.24000000000001V136.24Z " fill="#000000" opacity="1"></path><path d="M148.24 136.24H159.76000000000002V147.76000000000002H148.24V136.24Z " fill="#000000" opacity="1"></path><path d="M160.24 136.24H171.76000000000002V147.76000000000002H160.24V136.24Z " fill="#000000" opacity="1"></path><path d="M172.24 136.24H183.76000000000002V147.76000000000002H172.24V136.24Z " fill="#000000" opacity="1"></path><path d="M184.24 136.24H195.76000000000002V147.76000000000002H184.24V136.24Z " fill="#000000" opacity="1"></path><path d="M220.24 136.24H231.76000000000002V147.76000000000002H220.24V136.24Z " fill="#000000" opacity="1"></path><path d="M232.24 136.24H243.76000000000002V147.76000000000002H232.24V136.24Z " fill="#000000" opacity="1"></path><path d="M256.24 136.24H267.76V147.76000000000002H256.24V136.24Z " fill="#000000" opacity="1"></path><path d="M268.24 136.24H279.76V147.76000000000002H268.24V136.24Z " fill="#000000" opacity="1"></path><path d="M292.24 136.24H303.76V147.76000000000002H292.24V136.24Z " fill="#000000" opacity="1"></path><path d="M304.24 136.24H315.76V147.76000000000002H304.24V136.24Z " fill="#000000" opacity="1"></path><path d="M316.24 136.24H327.76V147.76000000000002H316.24V136.24Z " fill="#000000" opacity="1"></path><path d="M364.24 136.24H375.76V147.76000000000002H364.24V136.24Z " fill="#000000" opacity="1"></path><path d="M376.24 136.24H387.76V147.76000000000002H376.24V136.24Z " fill="#000000" opacity="1"></path><path d="M388.24 136.24H399.76V147.76000000000002H388.24V136.24Z " fill="#000000" opacity="1"></path><path d="M436.24 136.24H447.76V147.76000000000002H436.24V136.24Z " fill="#000000" opacity="1"></path><path d="M472.24 136.24H483.76V147.76000000000002H472.24V136.24Z " fill="#000000" opacity="1"></path><path d="M88.24000000000001 148.24H99.76V159.76000000000002H88.24000000000001V148.24Z " fill="#000000" opacity="1"></path><path d="M100.24000000000001 148.24H111.76V159.76000000000002H100.24000000000001V148.24Z " fill="#000000" opacity="1"></path><path d="M124.24 148.24H135.76V159.76000000000002H124.24V148.24Z " fill="#000000" opacity="1"></path><path d="M148.24 148.24H159.76000000000002V159.76000000000002H148.24V148.24Z " fill="#000000" opacity="1"></path><path d="M160.24 148.24H171.76000000000002V159.76000000000002H160.24V148.24Z " fill="#000000" opacity="1"></path><path d="M172.24 148.24H183.76000000000002V159.76000000000002H172.24V148.24Z " fill="#000000" opacity="1"></path><path d="M184.24 148.24H195.76000000000002V159.76000000000002H184.24V148.24Z " fill="#000000" opacity="1"></path><path d="M196.24 148.24H207.76000000000002V159.76000000000002H196.24V148.24Z " fill="#000000" opacity="1"></path><path d="M232.24 148.24H243.76000000000002V159.76000000000002H232.24V148.24Z " fill="#000000" opacity="1"></path><path d="M244.24 148.24H255.76000000000002V159.76000000000002H244.24V148.24Z " fill="#000000" opacity="1"></path><path d="M256.24 148.24H267.76V159.76000000000002H256.24V148.24Z " fill="#000000" opacity="1"></path><path d="M316.24 148.24H327.76V159.76000000000002H316.24V148.24Z " fill="#000000" opacity="1"></path><path d="M364.24 148.24H375.76V159.76000000000002H364.24V148.24Z " fill="#000000" opacity="1"></path><path d="M400.24 148.24H411.76V159.76000000000002H400.24V148.24Z " fill="#000000" opacity="1"></path><path d="M460.24 148.24H471.76V159.76000000000002H460.24V148.24Z " fill="#000000" opacity="1"></path><path d="M472.24 148.24H483.76V159.76000000000002H472.24V148.24Z " fill="#000000" opacity="1"></path><path d="M52.24 160.24H63.760000000000005V171.76000000000002H52.24V160.24Z " fill="#000000" opacity="1"></path><path d="M136.24 160.24H147.76000000000002V171.76000000000002H136.24V160.24Z " fill="#000000" opacity="1"></path><path d="M148.24 160.24H159.76000000000002V171.76000000000002H148.24V160.24Z " fill="#000000" opacity="1"></path><path d="M160.24 160.24H171.76000000000002V171.76000000000002H160.24V160.24Z " fill="#000000" opacity="1"></path><path d="M196.24 160.24H207.76000000000002V171.76000000000002H196.24V160.24Z " fill="#000000" opacity="1"></path><path d="M220.24 160.24H231.76000000000002V171.76000000000002H220.24V160.24Z " fill="#000000" opacity="1"></path><path d="M256.24 160.24H267.76V171.76000000000002H256.24V160.24Z " fill="#000000" opacity="1"></path><path d="M268.24 160.24H279.76V171.76000000000002H268.24V160.24Z " fill="#000000" opacity="1"></path><path d="M292.24 160.24H303.76V171.76000000000002H292.24V160.24Z " fill="#000000" opacity="1"></path><path d="M316.24 160.24H327.76V171.76000000000002H316.24V160.24Z " fill="#000000" opacity="1"></path><path d="M340.24 160.24H351.76V171.76000000000002H340.24V160.24Z " fill="#000000" opacity="1"></path><path d="M400.24 160.24H411.76V171.76000000000002H400.24V160.24Z " fill="#000000" opacity="1"></path><path d="M424.24 160.24H435.76V171.76000000000002H424.24V160.24Z " fill="#000000" opacity="1"></path><path d="M448.24 160.24H459.76V171.76000000000002H448.24V160.24Z " fill="#000000" opacity="1"></path><path d="M460.24 160.24H471.76V171.76000000000002H460.24V160.24Z " fill="#000000" opacity="1"></path><path d="M472.24 160.24H483.76V171.76000000000002H472.24V160.24Z " fill="#000000" opacity="1"></path><path d="M52.24 172.24H63.760000000000005V183.76000000000002H52.24V172.24Z " fill="#000000" opacity="1"></path><path d="M64.24000000000001 172.24H75.76V183.76000000000002H64.24000000000001V172.24Z " fill="#000000" opacity="1"></path><path d="M124.24 172.24H135.76V183.76000000000002H124.24V172.24Z " fill="#000000" opacity="1"></path><path d="M160.24 172.24H171.76000000000002V183.76000000000002H160.24V172.24Z " fill="#000000" opacity="1"></path><path d="M172.24 172.24H183.76000000000002V183.76000000000002H172.24V172.24Z " fill="#000000" opacity="1"></path><path d="M184.24 172.24H195.76000000000002V183.76000000000002H184.24V172.24Z " fill="#000000" opacity="1"></path><path d="M208.24 172.24H219.76000000000002V183.76000000000002H208.24V172.24Z " fill="#000000" opacity="1"></path><path d="M244.24 172.24H255.76000000000002V183.76000000000002H244.24V172.24Z " fill="#000000" opacity="1"></path><path d="M256.24 172.24H267.76V183.76000000000002H256.24V172.24Z " fill="#000000" opacity="1"></path><path d="M268.24 172.24H279.76V183.76000000000002H268.24V172.24Z " fill="#000000" opacity="1"></path><path d="M280.24 172.24H291.76V183.76000000000002H280.24V172.24Z " fill="#000000" opacity="1"></path><path d="M292.24 172.24H303.76V183.76000000000002H292.24V172.24Z " fill="#000000" opacity="1"></path><path d="M304.24 172.24H315.76V183.76000000000002H304.24V172.24Z " fill="#000000" opacity="1"></path><path d="M316.24 172.24H327.76V183.76000000000002H316.24V172.24Z " fill="#000000" opacity="1"></path><path d="M328.24 172.24H339.76V183.76000000000002H328.24V172.24Z " fill="#000000" opacity="1"></path><path d="M340.24 172.24H351.76V183.76000000000002H340.24V172.24Z " fill="#000000" opacity="1"></path><path d="M352.24 172.24H363.76V183.76000000000002H352.24V172.24Z " fill="#000000" opacity="1"></path><path d="M364.24 172.24H375.76V183.76000000000002H364.24V172.24Z " fill="#000000" opacity="1"></path><path d="M376.24 172.24H387.76V183.76000000000002H376.24V172.24Z " fill="#000000" opacity="1"></path><path d="M388.24 172.24H399.76V183.76000000000002H388.24V172.24Z " fill="#000000" opacity="1"></path><path d="M472.24 172.24H483.76V183.76000000000002H472.24V172.24Z " fill="#000000" opacity="1"></path><path d="M40.24 184.24H51.760000000000005V195.76000000000002H40.24V184.24Z " fill="#000000" opacity="1"></path><path d="M88.24000000000001 184.24H99.76V195.76000000000002H88.24000000000001V184.24Z " fill="#000000" opacity="1"></path><path d="M148.24 184.24H159.76000000000002V195.76000000000002H148.24V184.24Z " fill="#000000" opacity="1"></path><path d="M232.24 184.24H243.76000000000002V195.76000000000002H232.24V184.24Z " fill="#000000" opacity="1"></path><path d="M244.24 184.24H255.76000000000002V195.76000000000002H244.24V184.24Z " fill="#000000" opacity="1"></path><path d="M280.24 184.24H291.76V195.76000000000002H280.24V184.24Z " fill="#000000" opacity="1"></path><path d="M292.24 184.24H303.76V195.76000000000002H292.24V184.24Z " fill="#000000" opacity="1"></path><path d="M328.24 184.24H339.76V195.76000000000002H328.24V184.24Z " fill="#000000" opacity="1"></path><path d="M340.24 184.24H351.76V195.76000000000002H340.24V184.24Z " fill="#000000" opacity="1"></path><path d="M376.24 184.24H387.76V195.76000000000002H376.24V184.24Z " fill="#000000" opacity="1"></path><path d="M388.24 184.24H399.76V195.76000000000002H388.24V184.24Z " fill="#000000" opacity="1"></path><path d="M400.24 184.24H411.76V195.76000000000002H400.24V184.24Z " fill="#000000" opacity="1"></path><path d="M412.24 184.24H423.76V195.76000000000002H412.24V184.24Z " fill="#000000" opacity="1"></path><path d="M472.24 184.24H483.76V195.76000000000002H472.24V184.24Z " fill="#000000" opacity="1"></path><path d="M40.24 196.24H51.760000000000005V207.76000000000002H40.24V196.24Z " fill="#000000" opacity="1"></path><path d="M64.24000000000001 196.24H75.76V207.76000000000002H64.24000000000001V196.24Z " fill="#000000" opacity="1"></path><path d="M76.24000000000001 196.24H87.76V207.76000000000002H76.24000000000001V196.24Z " fill="#000000" opacity="1"></path><path d="M88.24000000000001 196.24H99.76V207.76000000000002H88.24000000000001V196.24Z " fill="#000000" opacity="1"></path><path d="M100.24000000000001 196.24H111.76V207.76000000000002H100.24000000000001V196.24Z " fill="#000000" opacity="1"></path><path d="M148.24 196.24H159.76000000000002V207.76000000000002H148.24V196.24Z " fill="#000000" opacity="1"></path><path d="M160.24 196.24H171.76000000000002V207.76000000000002H160.24V196.24Z " fill="#000000" opacity="1"></path><path d="M172.24 196.24H183.76000000000002V207.76000000000002H172.24V196.24Z " fill="#000000" opacity="1"></path><path d="M184.24 196.24H195.76000000000002V207.76000000000002H184.24V196.24Z " fill="#000000" opacity="1"></path><path d="M208.24 196.24H219.76000000000002V207.76000000000002H208.24V196.24Z " fill="#000000" opacity="1"></path><path d="M268.24 196.24H279.76V207.76000000000002H268.24V196.24Z " fill="#000000" opacity="1"></path><path d="M292.24 196.24H303.76V207.76000000000002H292.24V196.24Z " fill="#000000" opacity="1"></path><path d="M316.24 196.24H327.76V207.76000000000002H316.24V196.24Z " fill="#000000" opacity="1"></path><path d="M352.24 196.24H363.76V207.76000000000002H352.24V196.24Z " fill="#000000" opacity="1"></path><path d="M376.24 196.24H387.76V207.76000000000002H376.24V196.24Z " fill="#000000" opacity="1"></path><path d="M400.24 196.24H411.76V207.76000000000002H400.24V196.24Z " fill="#000000" opacity="1"></path><path d="M436.24 196.24H447.76V207.76000000000002H436.24V196.24Z " fill="#000000" opacity="1"></path><path d="M448.24 196.24H459.76V207.76000000000002H448.24V196.24Z " fill="#000000" opacity="1"></path><path d="M460.24 196.24H471.76V207.76000000000002H460.24V196.24Z " fill="#000000" opacity="1"></path><path d="M472.24 196.24H483.76V207.76000000000002H472.24V196.24Z " fill="#000000" opacity="1"></path><path d="M64.24000000000001 208.24H75.76V219.76000000000002H64.24000000000001V208.24Z " fill="#000000" opacity="1"></path><path d="M88.24000000000001 208.24H99.76V219.76000000000002H88.24000000000001V208.24Z " fill="#000000" opacity="1"></path><path d="M100.24000000000001 208.24H111.76V219.76000000000002H100.24000000000001V208.24Z " fill="#000000" opacity="1"></path><path d="M148.24 208.24H159.76000000000002V219.76000000000002H148.24V208.24Z " fill="#000000" opacity="1"></path><path d="M160.24 208.24H171.76000000000002V219.76000000000002H160.24V208.24Z " fill="#000000" opacity="1"></path><path d="M172.24 208.24H183.76000000000002V219.76000000000002H172.24V208.24Z " fill="#000000" opacity="1"></path><path d="M196.24 208.24H207.76000000000002V219.76000000000002H196.24V208.24Z " fill="#000000" opacity="1"></path><path d="M208.24 208.24H219.76000000000002V219.76000000000002H208.24V208.24Z " fill="#000000" opacity="1"></path><path d="M244.24 208.24H255.76000000000002V219.76000000000002H244.24V208.24Z " fill="#000000" opacity="1"></path><path d="M268.24 208.24H279.76V219.76000000000002H268.24V208.24Z " fill="#000000" opacity="1"></path><path d="M280.24 208.24H291.76V219.76000000000002H280.24V208.24Z " fill="#000000" opacity="1"></path><path d="M316.24 208.24H327.76V219.76000000000002H316.24V208.24Z " fill="#000000" opacity="1"></path><path d="M328.24 208.24H339.76V219.76000000000002H328.24V208.24Z " fill="#000000" opacity="1"></path><path d="M340.24 208.24H351.76V219.76000000000002H340.24V208.24Z " fill="#000000" opacity="1"></path><path d="M376.24 208.24H387.76V219.76000000000002H376.24V208.24Z " fill="#000000" opacity="1"></path><path d="M400.24 208.24H411.76V219.76000000000002H400.24V208.24Z " fill="#000000" opacity="1"></path><path d="M412.24 208.24H423.76V219.76000000000002H412.24V208.24Z " fill="#000000" opacity="1"></path><path d="M448.24 208.24H459.76V219.76000000000002H448.24V208.24Z " fill="#000000" opacity="1"></path><path d="M460.24 208.24H471.76V219.76000000000002H460.24V208.24Z " fill="#000000" opacity="1"></path><path d="M472.24 208.24H483.76V219.76000000000002H472.24V208.24Z " fill="#000000" opacity="1"></path><path d="M40.24 220.24H51.760000000000005V231.76000000000002H40.24V220.24Z " fill="#000000" opacity="1"></path><path d="M52.24 220.24H63.760000000000005V231.76000000000002H52.24V220.24Z " fill="#000000" opacity="1"></path><path d="M76.24000000000001 220.24H87.76V231.76000000000002H76.24000000000001V220.24Z " fill="#000000" opacity="1"></path><path d="M88.24000000000001 220.24H99.76V231.76000000000002H88.24000000000001V220.24Z " fill="#000000" opacity="1"></path><path d="M100.24000000000001 220.24H111.76V231.76000000000002H100.24000000000001V220.24Z " fill="#000000" opacity="1"></path><path d="M124.24 220.24H135.76V231.76000000000002H124.24V220.24Z " fill="#000000" opacity="1"></path><path d="M136.24 220.24H147.76000000000002V231.76000000000002H136.24V220.24Z " fill="#000000" opacity="1"></path><path d="M172.24 220.24H183.76000000000002V231.76000000000002H172.24V220.24Z " fill="#000000" opacity="1"></path><path d="M196.24 220.24H207.76000000000002V231.76000000000002H196.24V220.24Z " fill="#000000" opacity="1"></path><path d="M208.24 220.24H219.76000000000002V231.76000000000002H208.24V220.24Z " fill="#000000" opacity="1"></path><path d="M244.24 220.24H255.76000000000002V231.76000000000002H244.24V220.24Z " fill="#000000" opacity="1"></path><path d="M256.24 220.24H267.76V231.76000000000002H256.24V220.24Z " fill="#000000" opacity="1"></path><path d="M280.24 220.24H291.76V231.76000000000002H280.24V220.24Z " fill="#000000" opacity="1"></path><path d="M292.24 220.24H303.76V231.76000000000002H292.24V220.24Z " fill="#000000" opacity="1"></path><path d="M304.24 220.24H315.76V231.76000000000002H304.24V220.24Z " fill="#000000" opacity="1"></path><path d="M316.24 220.24H327.76V231.76000000000002H316.24V220.24Z " fill="#000000" opacity="1"></path><path d="M328.24 220.24H339.76V231.76000000000002H328.24V220.24Z " fill="#000000" opacity="1"></path><path d="M340.24 220.24H351.76V231.76000000000002H340.24V220.24Z " fill="#000000" opacity="1"></path><path d="M352.24 220.24H363.76V231.76000000000002H352.24V220.24Z " fill="#000000" opacity="1"></path><path d="M364.24 220.24H375.76V231.76000000000002H364.24V220.24Z " fill="#000000" opacity="1"></path><path d="M376.24 220.24H387.76V231.76000000000002H376.24V220.24Z " fill="#000000" opacity="1"></path><path d="M400.24 220.24H411.76V231.76000000000002H400.24V220.24Z " fill="#000000" opacity="1"></path><path d="M424.24 220.24H435.76V231.76000000000002H424.24V220.24Z " fill="#000000" opacity="1"></path><path d="M472.24 220.24H483.76V231.76000000000002H472.24V220.24Z " fill="#000000" opacity="1"></path><path d="M64.24000000000001 232.24H75.76V243.76000000000002H64.24000000000001V232.24Z " fill="#000000" opacity="1"></path><path d="M76.24000000000001 232.24H87.76V243.76000000000002H76.24000000000001V232.24Z " fill="#000000" opacity="1"></path><path d="M88.24000000000001 232.24H99.76V243.76000000000002H88.24000000000001V232.24Z " fill="#000000" opacity="1"></path><path d="M100.24000000000001 232.24H111.76V243.76000000000002H100.24000000000001V232.24Z " fill="#000000" opacity="1"></path><path d="M124.24 232.24H135.76V243.76000000000002H124.24V232.24Z " fill="#000000" opacity="1"></path><path d="M148.24 232.24H159.76000000000002V243.76000000000002H148.24V232.24Z " fill="#000000" opacity="1"></path><path d="M172.24 232.24H183.76000000000002V243.76000000000002H172.24V232.24Z " fill="#000000" opacity="1"></path><path d="M184.24 232.24H195.76000000000002V243.76000000000002H184.24V232.24Z " fill="#000000" opacity="1"></path><path d="M208.24 232.24H219.76000000000002V243.76000000000002H208.24V232.24Z " fill="#000000" opacity="1"></path><path d="M220.24 232.24H231.76000000000002V243.76000000000002H220.24V232.24Z " fill="#000000" opacity="1"></path><path d="M268.24 232.24H279.76V243.76000000000002H268.24V232.24Z " fill="#000000" opacity="1"></path><path d="M292.24 232.24H303.76V243.76000000000002H292.24V232.24Z " fill="#000000" opacity="1"></path><path d="M328.24 232.24H339.76V243.76000000000002H328.24V232.24Z " fill="#000000" opacity="1"></path><path d="M340.24 232.24H351.76V243.76000000000002H340.24V232.24Z " fill="#000000" opacity="1"></path><path d="M352.24 232.24H363.76V243.76000000000002H352.24V232.24Z " fill="#000000" opacity="1"></path><path d="M400.24 232.24H411.76V243.76000000000002H400.24V232.24Z " fill="#000000" opacity="1"></path><path d="M412.24 232.24H423.76V243.76000000000002H412.24V232.24Z " fill="#000000" opacity="1"></path><path d="M436.24 232.24H447.76V243.76000000000002H436.24V232.24Z " fill="#000000" opacity="1"></path><path d="M472.24 232.24H483.76V243.76000000000002H472.24V232.24Z " fill="#000000" opacity="1"></path><path d="M40.24 244.24H51.760000000000005V255.76000000000002H40.24V244.24Z " fill="#000000" opacity="1"></path><path d="M52.24 244.24H63.760000000000005V255.76000000000002H52.24V244.24Z " fill="#000000" opacity="1"></path><path d="M124.24 244.24H135.76V255.76000000000002H124.24V244.24Z " fill="#000000" opacity="1"></path><path d="M148.24 244.24H159.76000000000002V255.76000000000002H148.24V244.24Z " fill="#000000" opacity="1"></path><path d="M160.24 244.24H171.76000000000002V255.76000000000002H160.24V244.24Z " fill="#000000" opacity="1"></path><path d="M184.24 244.24H195.76000000000002V255.76000000000002H184.24V244.24Z " fill="#000000" opacity="1"></path><path d="M208.24 244.24H219.76000000000002V255.76000000000002H208.24V244.24Z " fill="#000000" opacity="1"></path><path d="M256.24 244.24H267.76V255.76000000000002H256.24V244.24Z " fill="#000000" opacity="1"></path><path d="M268.24 244.24H279.76V255.76000000000002H268.24V244.24Z " fill="#000000" opacity="1"></path><path d="M280.24 244.24H291.76V255.76000000000002H280.24V244.24Z " fill="#000000" opacity="1"></path><path d="M292.24 244.24H303.76V255.76000000000002H292.24V244.24Z " fill="#000000" opacity="1"></path><path d="M316.24 244.24H327.76V255.76000000000002H316.24V244.24Z " fill="#000000" opacity="1"></path><path d="M376.24 244.24H387.76V255.76000000000002H376.24V244.24Z " fill="#000000" opacity="1"></path><path d="M388.24 244.24H399.76V255.76000000000002H388.24V244.24Z " fill="#000000" opacity="1"></path><path d="M400.24 244.24H411.76V255.76000000000002H400.24V244.24Z " fill="#000000" opacity="1"></path><path d="M448.24 244.24H459.76V255.76000000000002H448.24V244.24Z " fill="#000000" opacity="1"></path><path d="M460.24 244.24H471.76V255.76000000000002H460.24V244.24Z " fill="#000000" opacity="1"></path><path d="M472.24 244.24H483.76V255.76000000000002H472.24V244.24Z " fill="#000000" opacity="1"></path><path d="M40.24 256.24H51.760000000000005V267.76H40.24V256.24Z " fill="#000000" opacity="1"></path><path d="M52.24 256.24H63.760000000000005V267.76H52.24V256.24Z " fill="#000000" opacity="1"></path><path d="M88.24000000000001 256.24H99.76V267.76H88.24000000000001V256.24Z " fill="#000000" opacity="1"></path><path d="M124.24 256.24H135.76V267.76H124.24V256.24Z " fill="#000000" opacity="1"></path><path d="M136.24 256.24H147.76000000000002V267.76H136.24V256.24Z " fill="#000000" opacity="1"></path><path d="M148.24 256.24H159.76000000000002V267.76H148.24V256.24Z " fill="#000000" opacity="1"></path><path d="M160.24 256.24H171.76000000000002V267.76H160.24V256.24Z " fill="#000000" opacity="1"></path><path d="M220.24 256.24H231.76000000000002V267.76H220.24V256.24Z " fill="#000000" opacity="1"></path><path d="M232.24 256.24H243.76000000000002V267.76H232.24V256.24Z " fill="#000000" opacity="1"></path><path d="M244.24 256.24H255.76000000000002V267.76H244.24V256.24Z " fill="#000000" opacity="1"></path><path d="M268.24 256.24H279.76V267.76H268.24V256.24Z " fill="#000000" opacity="1"></path><path d="M292.24 256.24H303.76V267.76H292.24V256.24Z " fill="#000000" opacity="1"></path><path d="M376.24 256.24H387.76V267.76H376.24V256.24Z " fill="#000000" opacity="1"></path><path d="M400.24 256.24H411.76V267.76H400.24V256.24Z " fill="#000000" opacity="1"></path><path d="M412.24 256.24H423.76V267.76H412.24V256.24Z " fill="#000000" opacity="1"></path><path d="M424.24 256.24H435.76V267.76H424.24V256.24Z " fill="#000000" opacity="1"></path><path d="M436.24 256.24H447.76V267.76H436.24V256.24Z " fill="#000000" opacity="1"></path><path d="M460.24 256.24H471.76V267.76H460.24V256.24Z " fill="#000000" opacity="1"></path><path d="M472.24 256.24H483.76V267.76H472.24V256.24Z " fill="#000000" opacity="1"></path><path d="M40.24 268.24H51.760000000000005V279.76H40.24V268.24Z " fill="#000000" opacity="1"></path><path d="M64.24000000000001 268.24H75.76V279.76H64.24000000000001V268.24Z " fill="#000000" opacity="1"></path><path d="M76.24000000000001 268.24H87.76V279.76H76.24000000000001V268.24Z " fill="#000000" opacity="1"></path><path d="M100.24000000000001 268.24H111.76V279.76H100.24000000000001V268.24Z " fill="#000000" opacity="1"></path><path d="M148.24 268.24H159.76000000000002V279.76H148.24V268.24Z " fill="#000000" opacity="1"></path><path d="M172.24 268.24H183.76000000000002V279.76H172.24V268.24Z " fill="#000000" opacity="1"></path><path d="M196.24 268.24H207.76000000000002V279.76H196.24V268.24Z " fill="#000000" opacity="1"></path><path d="M208.24 268.24H219.76000000000002V279.76H208.24V268.24Z " fill="#000000" opacity="1"></path><path d="M220.24 268.24H231.76000000000002V279.76H220.24V268.24Z " fill="#000000" opacity="1"></path><path d="M232.24 268.24H243.76000000000002V279.76H232.24V268.24Z " fill="#000000" opacity="1"></path><path d="M268.24 268.24H279.76V279.76H268.24V268.24Z " fill="#000000" opacity="1"></path><path d="M280.24 268.24H291.76V279.76H280.24V268.24Z " fill="#000000" opacity="1"></path><path d="M292.24 268.24H303.76V279.76H292.24V268.24Z " fill="#000000" opacity="1"></path><path d="M340.24 268.24H351.76V279.76H340.24V268.24Z " fill="#000000" opacity="1"></path><path d="M352.24 268.24H363.76V279.76H352.24V268.24Z " fill="#000000" opacity="1"></path><path d="M364.24 268.24H375.76V279.76H364.24V268.24Z " fill="#000000" opacity="1"></path><path d="M388.24 268.24H399.76V279.76H388.24V268.24Z " fill="#000000" opacity="1"></path><path d="M460.24 268.24H471.76V279.76H460.24V268.24Z " fill="#000000" opacity="1"></path><path d="M40.24 280.24H51.760000000000005V291.76H40.24V280.24Z " fill="#000000" opacity="1"></path><path d="M76.24000000000001 280.24H87.76V291.76H76.24000000000001V280.24Z " fill="#000000" opacity="1"></path><path d="M136.24 280.24H147.76000000000002V291.76H136.24V280.24Z " fill="#000000" opacity="1"></path><path d="M148.24 280.24H159.76000000000002V291.76H148.24V280.24Z " fill="#000000" opacity="1"></path><path d="M184.24 280.24H195.76000000000002V291.76H184.24V280.24Z " fill="#000000" opacity="1"></path><path d="M208.24 280.24H219.76000000000002V291.76H208.24V280.24Z " fill="#000000" opacity="1"></path><path d="M244.24 280.24H255.76000000000002V291.76H244.24V280.24Z " fill="#000000" opacity="1"></path><path d="M292.24 280.24H303.76V291.76H292.24V280.24Z " fill="#000000" opacity="1"></path><path d="M304.24 280.24H315.76V291.76H304.24V280.24Z " fill="#000000" opacity="1"></path><path d="M316.24 280.24H327.76V291.76H316.24V280.24Z " fill="#000000" opacity="1"></path><path d="M340.24 280.24H351.76V291.76H340.24V280.24Z " fill="#000000" opacity="1"></path><path d="M376.24 280.24H387.76V291.76H376.24V280.24Z " fill="#000000" opacity="1"></path><path d="M400.24 280.24H411.76V291.76H400.24V280.24Z " fill="#000000" opacity="1"></path><path d="M412.24 280.24H423.76V291.76H412.24V280.24Z " fill="#000000" opacity="1"></path><path d="M40.24 292.24H51.760000000000005V303.76H40.24V292.24Z " fill="#000000" opacity="1"></path><path d="M76.24000000000001 292.24H87.76V303.76H76.24000000000001V292.24Z " fill="#000000" opacity="1"></path><path d="M88.24000000000001 292.24H99.76V303.76H88.24000000000001V292.24Z " fill="#000000" opacity="1"></path><path d="M124.24 292.24H135.76V303.76H124.24V292.24Z " fill="#000000" opacity="1"></path><path d="M184.24 292.24H195.76000000000002V303.76H184.24V292.24Z " fill="#000000" opacity="1"></path><path d="M196.24 292.24H207.76000000000002V303.76H196.24V292.24Z " fill="#000000" opacity="1"></path><path d="M208.24 292.24H219.76000000000002V303.76H208.24V292.24Z " fill="#000000" opacity="1"></path><path d="M244.24 292.24H255.76000000000002V303.76H244.24V292.24Z " fill="#000000" opacity="1"></path><path d="M256.24 292.24H267.76V303.76H256.24V292.24Z " fill="#000000" opacity="1"></path><path d="M280.24 292.24H291.76V303.76H280.24V292.24Z " fill="#000000" opacity="1"></path><path d="M292.24 292.24H303.76V303.76H292.24V292.24Z " fill="#000000" opacity="1"></path><path d="M304.24 292.24H315.76V303.76H304.24V292.24Z " fill="#000000" opacity="1"></path><path d="M316.24 292.24H327.76V303.76H316.24V292.24Z " fill="#000000" opacity="1"></path><path d="M328.24 292.24H339.76V303.76H328.24V292.24Z " fill="#000000" opacity="1"></path><path d="M340.24 292.24H351.76V303.76H340.24V292.24Z " fill="#000000" opacity="1"></path><path d="M352.24 292.24H363.76V303.76H352.24V292.24Z " fill="#000000" opacity="1"></path><path d="M400.24 292.24H411.76V303.76H400.24V292.24Z " fill="#000000" opacity="1"></path><path d="M436.24 292.24H447.76V303.76H436.24V292.24Z " fill="#000000" opacity="1"></path><path d="M472.24 292.24H483.76V303.76H472.24V292.24Z " fill="#000000" opacity="1"></path><path d="M40.24 304.24H51.760000000000005V315.76H40.24V304.24Z " fill="#000000" opacity="1"></path><path d="M76.24000000000001 304.24H87.76V315.76H76.24000000000001V304.24Z " fill="#000000" opacity="1"></path><path d="M88.24000000000001 304.24H99.76V315.76H88.24000000000001V304.24Z " fill="#000000" opacity="1"></path><path d="M160.24 304.24H171.76000000000002V315.76H160.24V304.24Z " fill="#000000" opacity="1"></path><path d="M172.24 304.24H183.76000000000002V315.76H172.24V304.24Z " fill="#000000" opacity="1"></path><path d="M196.24 304.24H207.76000000000002V315.76H196.24V304.24Z " fill="#000000" opacity="1"></path><path d="M220.24 304.24H231.76000000000002V315.76H220.24V304.24Z " fill="#000000" opacity="1"></path><path d="M280.24 304.24H291.76V315.76H280.24V304.24Z " fill="#000000" opacity="1"></path><path d="M328.24 304.24H339.76V315.76H328.24V304.24Z " fill="#000000" opacity="1"></path><path d="M352.24 304.24H363.76V315.76H352.24V304.24Z " fill="#000000" opacity="1"></path><path d="M376.24 304.24H387.76V315.76H376.24V304.24Z " fill="#000000" opacity="1"></path><path d="M400.24 304.24H411.76V315.76H400.24V304.24Z " fill="#000000" opacity="1"></path><path d="M424.24 304.24H435.76V315.76H424.24V304.24Z " fill="#000000" opacity="1"></path><path d="M436.24 304.24H447.76V315.76H436.24V304.24Z " fill="#000000" opacity="1"></path><path d="M448.24 304.24H459.76V315.76H448.24V304.24Z " fill="#000000" opacity="1"></path><path d="M460.24 304.24H471.76V315.76H460.24V304.24Z " fill="#000000" opacity="1"></path><path d="M472.24 304.24H483.76V315.76H472.24V304.24Z " fill="#000000" opacity="1"></path><path d="M40.24 316.24H51.760000000000005V327.76H40.24V316.24Z " fill="#000000" opacity="1"></path><path d="M76.24000000000001 316.24H87.76V327.76H76.24000000000001V316.24Z " fill="#000000" opacity="1"></path><path d="M88.24000000000001 316.24H99.76V327.76H88.24000000000001V316.24Z " fill="#000000" opacity="1"></path><path d="M100.24000000000001 316.24H111.76V327.76H100.24000000000001V316.24Z " fill="#000000" opacity="1"></path><path d="M124.24 316.24H135.76V327.76H124.24V316.24Z " fill="#000000" opacity="1"></path><path d="M148.24 316.24H159.76000000000002V327.76H148.24V316.24Z " fill="#000000" opacity="1"></path><path d="M160.24 316.24H171.76000000000002V327.76H160.24V316.24Z " fill="#000000" opacity="1"></path><path d="M196.24 316.24H207.76000000000002V327.76H196.24V316.24Z " fill="#000000" opacity="1"></path><path d="M208.24 316.24H219.76000000000002V327.76H208.24V316.24Z " fill="#000000" opacity="1"></path><path d="M256.24 316.24H267.76V327.76H256.24V316.24Z " fill="#000000" opacity="1"></path><path d="M340.24 316.24H351.76V327.76H340.24V316.24Z " fill="#000000" opacity="1"></path><path d="M352.24 316.24H363.76V327.76H352.24V316.24Z " fill="#000000" opacity="1"></path><path d="M388.24 316.24H399.76V327.76H388.24V316.24Z " fill="#000000" opacity="1"></path><path d="M400.24 316.24H411.76V327.76H400.24V316.24Z " fill="#000000" opacity="1"></path><path d="M40.24 328.24H51.760000000000005V339.76H40.24V328.24Z " fill="#000000" opacity="1"></path><path d="M52.24 328.24H63.760000000000005V339.76H52.24V328.24Z " fill="#000000" opacity="1"></path><path d="M64.24000000000001 328.24H75.76V339.76H64.24000000000001V328.24Z " fill="#000000" opacity="1"></path><path d="M76.24000000000001 328.24H87.76V339.76H76.24000000000001V328.24Z " fill="#000000" opacity="1"></path><path d="M124.24 328.24H135.76V339.76H124.24V328.24Z " fill="#000000" opacity="1"></path><path d="M172.24 328.24H183.76000000000002V339.76H172.24V328.24Z " fill="#000000" opacity="1"></path><path d="M184.24 328.24H195.76000000000002V339.76H184.24V328.24Z " fill="#000000" opacity="1"></path><path d="M208.24 328.24H219.76000000000002V339.76H208.24V328.24Z " fill="#000000" opacity="1"></path><path d="M232.24 328.24H243.76000000000002V339.76H232.24V328.24Z " fill="#000000" opacity="1"></path><path d="M256.24 328.24H267.76V339.76H256.24V328.24Z " fill="#000000" opacity="1"></path><path d="M268.24 328.24H279.76V339.76H268.24V328.24Z " fill="#000000" opacity="1"></path><path d="M292.24 328.24H303.76V339.76H292.24V328.24Z " fill="#000000" opacity="1"></path><path d="M304.24 328.24H315.76V339.76H304.24V328.24Z " fill="#000000" opacity="1"></path><path d="M352.24 328.24H363.76V339.76H352.24V328.24Z " fill="#000000" opacity="1"></path><path d="M364.24 328.24H375.76V339.76H364.24V328.24Z " fill="#000000" opacity="1"></path><path d="M376.24 328.24H387.76V339.76H376.24V328.24Z " fill="#000000" opacity="1"></path><path d="M388.24 328.24H399.76V339.76H388.24V328.24Z " fill="#000000" opacity="1"></path><path d="M400.24 328.24H411.76V339.76H400.24V328.24Z " fill="#000000" opacity="1"></path><path d="M412.24 328.24H423.76V339.76H412.24V328.24Z " fill="#000000" opacity="1"></path><path d="M472.24 328.24H483.76V339.76H472.24V328.24Z " fill="#000000" opacity="1"></path><path d="M52.24 340.24H63.760000000000005V351.76H52.24V340.24Z " fill="#000000" opacity="1"></path><path d="M76.24000000000001 340.24H87.76V351.76H76.24000000000001V340.24Z " fill="#000000" opacity="1"></path><path d="M88.24000000000001 340.24H99.76V351.76H88.24000000000001V340.24Z " fill="#000000" opacity="1"></path><path d="M136.24 340.24H147.76000000000002V351.76H136.24V340.24Z " fill="#000000" opacity="1"></path><path d="M172.24 340.24H183.76000000000002V351.76H172.24V340.24Z " fill="#000000" opacity="1"></path><path d="M184.24 340.24H195.76000000000002V351.76H184.24V340.24Z " fill="#000000" opacity="1"></path><path d="M244.24 340.24H255.76000000000002V351.76H244.24V340.24Z " fill="#000000" opacity="1"></path><path d="M256.24 340.24H267.76V351.76H256.24V340.24Z " fill="#000000" opacity="1"></path><path d="M268.24 340.24H279.76V351.76H268.24V340.24Z " fill="#000000" opacity="1"></path><path d="M280.24 340.24H291.76V351.76H280.24V340.24Z " fill="#000000" opacity="1"></path><path d="M316.24 340.24H327.76V351.76H316.24V340.24Z " fill="#000000" opacity="1"></path><path d="M340.24 340.24H351.76V351.76H340.24V340.24Z " fill="#000000" opacity="1"></path><path d="M352.24 340.24H363.76V351.76H352.24V340.24Z " fill="#000000" opacity="1"></path><path d="M376.24 340.24H387.76V351.76H376.24V340.24Z " fill="#000000" opacity="1"></path><path d="M400.24 340.24H411.76V351.76H400.24V340.24Z " fill="#000000" opacity="1"></path><path d="M460.24 340.24H471.76V351.76H460.24V340.24Z " fill="#000000" opacity="1"></path><path d="M472.24 340.24H483.76V351.76H472.24V340.24Z " fill="#000000" opacity="1"></path><path d="M40.24 352.24H51.760000000000005V363.76H40.24V352.24Z " fill="#000000" opacity="1"></path><path d="M64.24000000000001 352.24H75.76V363.76H64.24000000000001V352.24Z " fill="#000000" opacity="1"></path><path d="M76.24000000000001 352.24H87.76V363.76H76.24000000000001V352.24Z " fill="#000000" opacity="1"></path><path d="M124.24 352.24H135.76V363.76H124.24V352.24Z " fill="#000000" opacity="1"></path><path d="M136.24 352.24H147.76000000000002V363.76H136.24V352.24Z " fill="#000000" opacity="1"></path><path d="M148.24 352.24H159.76000000000002V363.76H148.24V352.24Z " fill="#000000" opacity="1"></path><path d="M184.24 352.24H195.76000000000002V363.76H184.24V352.24Z " fill="#000000" opacity="1"></path><path d="M208.24 352.24H219.76000000000002V363.76H208.24V352.24Z " fill="#000000" opacity="1"></path><path d="M220.24 352.24H231.76000000000002V363.76H220.24V352.24Z " fill="#000000" opacity="1"></path><path d="M244.24 352.24H255.76000000000002V363.76H244.24V352.24Z " fill="#000000" opacity="1"></path><path d="M256.24 352.24H267.76V363.76H256.24V352.24Z " fill="#000000" opacity="1"></path><path d="M268.24 352.24H279.76V363.76H268.24V352.24Z " fill="#000000" opacity="1"></path><path d="M280.24 352.24H291.76V363.76H280.24V352.24Z " fill="#000000" opacity="1"></path><path d="M292.24 352.24H303.76V363.76H292.24V352.24Z " fill="#000000" opacity="1"></path><path d="M304.24 352.24H315.76V363.76H304.24V352.24Z " fill="#000000" opacity="1"></path><path d="M352.24 352.24H363.76V363.76H352.24V352.24Z " fill="#000000" opacity="1"></path><path d="M400.24 352.24H411.76V363.76H400.24V352.24Z " fill="#000000" opacity="1"></path><path d="M412.24 352.24H423.76V363.76H412.24V352.24Z " fill="#000000" opacity="1"></path><path d="M424.24 352.24H435.76V363.76H424.24V352.24Z " fill="#000000" opacity="1"></path><path d="M436.24 352.24H447.76V363.76H436.24V352.24Z " fill="#000000" opacity="1"></path><path d="M448.24 352.24H459.76V363.76H448.24V352.24Z " fill="#000000" opacity="1"></path><path d="M460.24 352.24H471.76V363.76H460.24V352.24Z " fill="#000000" opacity="1"></path><path d="M472.24 352.24H483.76V363.76H472.24V352.24Z " fill="#000000" opacity="1"></path><path d="M52.24 364.24H63.760000000000005V375.76H52.24V364.24Z " fill="#000000" opacity="1"></path><path d="M76.24000000000001 364.24H87.76V375.76H76.24000000000001V364.24Z " fill="#000000" opacity="1"></path><path d="M88.24000000000001 364.24H99.76V375.76H88.24000000000001V364.24Z " fill="#000000" opacity="1"></path><path d="M124.24 364.24H135.76V375.76H124.24V364.24Z " fill="#000000" opacity="1"></path><path d="M136.24 364.24H147.76000000000002V375.76H136.24V364.24Z " fill="#000000" opacity="1"></path><path d="M160.24 364.24H171.76000000000002V375.76H160.24V364.24Z " fill="#000000" opacity="1"></path><path d="M196.24 364.24H207.76000000000002V375.76H196.24V364.24Z " fill="#000000" opacity="1"></path><path d="M208.24 364.24H219.76000000000002V375.76H208.24V364.24Z " fill="#000000" opacity="1"></path><path d="M232.24 364.24H243.76000000000002V375.76H232.24V364.24Z " fill="#000000" opacity="1"></path><path d="M268.24 364.24H279.76V375.76H268.24V364.24Z " fill="#000000" opacity="1"></path><path d="M280.24 364.24H291.76V375.76H280.24V364.24Z " fill="#000000" opacity="1"></path><path d="M292.24 364.24H303.76V375.76H292.24V364.24Z " fill="#000000" opacity="1"></path><path d="M316.24 364.24H327.76V375.76H316.24V364.24Z " fill="#000000" opacity="1"></path><path d="M340.24 364.24H351.76V375.76H340.24V364.24Z " fill="#000000" opacity="1"></path><path d="M352.24 364.24H363.76V375.76H352.24V364.24Z " fill="#000000" opacity="1"></path><path d="M364.24 364.24H375.76V375.76H364.24V364.24Z " fill="#000000" opacity="1"></path><path d="M376.24 364.24H387.76V375.76H376.24V364.24Z " fill="#000000" opacity="1"></path><path d="M400.24 364.24H411.76V375.76H400.24V364.24Z " fill="#000000" opacity="1"></path><path d="M424.24 364.24H435.76V375.76H424.24V364.24Z " fill="#000000" opacity="1"></path><path d="M436.24 364.24H447.76V375.76H436.24V364.24Z " fill="#000000" opacity="1"></path><path d="M472.24 364.24H483.76V375.76H472.24V364.24Z " fill="#000000" opacity="1"></path><path d="M40.24 376.24H51.760000000000005V387.76H40.24V376.24Z " fill="#000000" opacity="1"></path><path d="M160.24 376.24H171.76000000000002V387.76H160.24V376.24Z " fill="#000000" opacity="1"></path><path d="M172.24 376.24H183.76000000000002V387.76H172.24V376.24Z " fill="#000000" opacity="1"></path><path d="M184.24 376.24H195.76000000000002V387.76H184.24V376.24Z " fill="#000000" opacity="1"></path><path d="M196.24 376.24H207.76000000000002V387.76H196.24V376.24Z " fill="#000000" opacity="1"></path><path d="M244.24 376.24H255.76000000000002V387.76H244.24V376.24Z " fill="#000000" opacity="1"></path><path d="M256.24 376.24H267.76V387.76H256.24V376.24Z " fill="#000000" opacity="1"></path><path d="M268.24 376.24H279.76V387.76H268.24V376.24Z " fill="#000000" opacity="1"></path><path d="M292.24 376.24H303.76V387.76H292.24V376.24Z " fill="#000000" opacity="1"></path><path d="M304.24 376.24H315.76V387.76H304.24V376.24Z " fill="#000000" opacity="1"></path><path d="M328.24 376.24H339.76V387.76H328.24V376.24Z " fill="#000000" opacity="1"></path><path d="M340.24 376.24H351.76V387.76H340.24V376.24Z " fill="#000000" opacity="1"></path><path d="M436.24 376.24H447.76V387.76H436.24V376.24Z " fill="#000000" opacity="1"></path><path d="M472.24 376.24H483.76V387.76H472.24V376.24Z " fill="#000000" opacity="1"></path><path d="M136.24 388.24H147.76000000000002V399.76H136.24V388.24Z " fill="#000000" opacity="1"></path><path d="M148.24 388.24H159.76000000000002V399.76H148.24V388.24Z " fill="#000000" opacity="1"></path><path d="M184.24 388.24H195.76000000000002V399.76H184.24V388.24Z " fill="#000000" opacity="1"></path><path d="M208.24 388.24H219.76000000000002V399.76H208.24V388.24Z " fill="#000000" opacity="1"></path><path d="M232.24 388.24H243.76000000000002V399.76H232.24V388.24Z " fill="#000000" opacity="1"></path><path d="M244.24 388.24H255.76000000000002V399.76H244.24V388.24Z " fill="#000000" opacity="1"></path><path d="M280.24 388.24H291.76V399.76H280.24V388.24Z " fill="#000000" opacity="1"></path><path d="M304.24 388.24H315.76V399.76H304.24V388.24Z " fill="#000000" opacity="1"></path><path d="M328.24 388.24H339.76V399.76H328.24V388.24Z " fill="#000000" opacity="1"></path><path d="M352.24 388.24H363.76V399.76H352.24V388.24Z " fill="#000000" opacity="1"></path><path d="M460.24 388.24H471.76V399.76H460.24V388.24Z " fill="#000000" opacity="1"></path><path d="M472.24 388.24H483.76V399.76H472.24V388.24Z " fill="#000000" opacity="1"></path><path d="M148.24 400.24H159.76000000000002V411.76H148.24V400.24Z " fill="#000000" opacity="1"></path><path d="M160.24 400.24H171.76000000000002V411.76H160.24V400.24Z " fill="#000000" opacity="1"></path><path d="M184.24 400.24H195.76000000000002V411.76H184.24V400.24Z " fill="#000000" opacity="1"></path><path d="M220.24 400.24H231.76000000000002V411.76H220.24V400.24Z " fill="#000000" opacity="1"></path><path d="M244.24 400.24H255.76000000000002V411.76H244.24V400.24Z " fill="#000000" opacity="1"></path><path d="M256.24 400.24H267.76V411.76H256.24V400.24Z " fill="#000000" opacity="1"></path><path d="M280.24 400.24H291.76V411.76H280.24V400.24Z " fill="#000000" opacity="1"></path><path d="M304.24 400.24H315.76V411.76H304.24V400.24Z " fill="#000000" opacity="1"></path><path d="M328.24 400.24H339.76V411.76H328.24V400.24Z " fill="#000000" opacity="1"></path><path d="M340.24 400.24H351.76V411.76H340.24V400.24Z " fill="#000000" opacity="1"></path><path d="M364.24 400.24H375.76V411.76H364.24V400.24Z " fill="#000000" opacity="1"></path><path d="M448.24 400.24H459.76V411.76H448.24V400.24Z " fill="#000000" opacity="1"></path><path d="M460.24 400.24H471.76V411.76H460.24V400.24Z " fill="#000000" opacity="1"></path><path d="M472.24 400.24H483.76V411.76H472.24V400.24Z " fill="#000000" opacity="1"></path><path d="M136.24 412.24H147.76000000000002V423.76H136.24V412.24Z " fill="#000000" opacity="1"></path><path d="M148.24 412.24H159.76000000000002V423.76H148.24V412.24Z " fill="#000000" opacity="1"></path><path d="M160.24 412.24H171.76000000000002V423.76H160.24V412.24Z " fill="#000000" opacity="1"></path><path d="M172.24 412.24H183.76000000000002V423.76H172.24V412.24Z " fill="#000000" opacity="1"></path><path d="M208.24 412.24H219.76000000000002V423.76H208.24V412.24Z " fill="#000000" opacity="1"></path><path d="M220.24 412.24H231.76000000000002V423.76H220.24V412.24Z " fill="#000000" opacity="1"></path><path d="M244.24 412.24H255.76000000000002V423.76H244.24V412.24Z " fill="#000000" opacity="1"></path><path d="M280.24 412.24H291.76V423.76H280.24V412.24Z " fill="#000000" opacity="1"></path><path d="M292.24 412.24H303.76V423.76H292.24V412.24Z " fill="#000000" opacity="1"></path><path d="M316.24 412.24H327.76V423.76H316.24V412.24Z " fill="#000000" opacity="1"></path><path d="M328.24 412.24H339.76V423.76H328.24V412.24Z " fill="#000000" opacity="1"></path><path d="M340.24 412.24H351.76V423.76H340.24V412.24Z " fill="#000000" opacity="1"></path><path d="M352.24 412.24H363.76V423.76H352.24V412.24Z " fill="#000000" opacity="1"></path><path d="M460.24 412.24H471.76V423.76H460.24V412.24Z " fill="#000000" opacity="1"></path><path d="M472.24 412.24H483.76V423.76H472.24V412.24Z " fill="#000000" opacity="1"></path><path d="M136.24 424.24H147.76000000000002V435.76H136.24V424.24Z " fill="#000000" opacity="1"></path><path d="M160.24 424.24H171.76000000000002V435.76H160.24V424.24Z " fill="#000000" opacity="1"></path><path d="M172.24 424.24H183.76000000000002V435.76H172.24V424.24Z " fill="#000000" opacity="1"></path><path d="M196.24 424.24H207.76000000000002V435.76H196.24V424.24Z " fill="#000000" opacity="1"></path><path d="M220.24 424.24H231.76000000000002V435.76H220.24V424.24Z " fill="#000000" opacity="1"></path><path d="M292.24 424.24H303.76V435.76H292.24V424.24Z " fill="#000000" opacity="1"></path><path d="M316.24 424.24H327.76V435.76H316.24V424.24Z " fill="#000000" opacity="1"></path><path d="M328.24 424.24H339.76V435.76H328.24V424.24Z " fill="#000000" opacity="1"></path><path d="M340.24 424.24H351.76V435.76H340.24V424.24Z " fill="#000000" opacity="1"></path><path d="M436.24 424.24H447.76V435.76H436.24V424.24Z " fill="#000000" opacity="1"></path><path d="M472.24 424.24H483.76V435.76H472.24V424.24Z " fill="#000000" opacity="1"></path><path d="M172.24 436.24H183.76000000000002V447.76H172.24V436.24Z " fill="#000000" opacity="1"></path><path d="M220.24 436.24H231.76000000000002V447.76H220.24V436.24Z " fill="#000000" opacity="1"></path><path d="M256.24 436.24H267.76V447.76H256.24V436.24Z " fill="#000000" opacity="1"></path><path d="M268.24 436.24H279.76V447.76H268.24V436.24Z " fill="#000000" opacity="1"></path><path d="M280.24 436.24H291.76V447.76H280.24V436.24Z " fill="#000000" opacity="1"></path><path d="M292.24 436.24H303.76V447.76H292.24V436.24Z " fill="#000000" opacity="1"></path><path d="M316.24 436.24H327.76V447.76H316.24V436.24Z " fill="#000000" opacity="1"></path><path d="M328.24 436.24H339.76V447.76H328.24V436.24Z " fill="#000000" opacity="1"></path><path d="M340.24 436.24H351.76V447.76H340.24V436.24Z " fill="#000000" opacity="1"></path><path d="M352.24 436.24H363.76V447.76H352.24V436.24Z " fill="#000000" opacity="1"></path><path d="M376.24 436.24H387.76V447.76H376.24V436.24Z " fill="#000000" opacity="1"></path><path d="M388.24 436.24H399.76V447.76H388.24V436.24Z " fill="#000000" opacity="1"></path><path d="M412.24 436.24H423.76V447.76H412.24V436.24Z " fill="#000000" opacity="1"></path><path d="M424.24 436.24H435.76V447.76H424.24V436.24Z " fill="#000000" opacity="1"></path><path d="M460.24 436.24H471.76V447.76H460.24V436.24Z " fill="#000000" opacity="1"></path><path d="M472.24 436.24H483.76V447.76H472.24V436.24Z " fill="#000000" opacity="1"></path><path d="M136.24 448.24H147.76000000000002V459.76H136.24V448.24Z " fill="#000000" opacity="1"></path><path d="M148.24 448.24H159.76000000000002V459.76H148.24V448.24Z " fill="#000000" opacity="1"></path><path d="M196.24 448.24H207.76000000000002V459.76H196.24V448.24Z " fill="#000000" opacity="1"></path><path d="M232.24 448.24H243.76000000000002V459.76H232.24V448.24Z " fill="#000000" opacity="1"></path><path d="M244.24 448.24H255.76000000000002V459.76H244.24V448.24Z " fill="#000000" opacity="1"></path><path d="M268.24 448.24H279.76V459.76H268.24V448.24Z " fill="#000000" opacity="1"></path><path d="M316.24 448.24H327.76V459.76H316.24V448.24Z " fill="#000000" opacity="1"></path><path d="M328.24 448.24H339.76V459.76H328.24V448.24Z " fill="#000000" opacity="1"></path><path d="M352.24 448.24H363.76V459.76H352.24V448.24Z " fill="#000000" opacity="1"></path><path d="M364.24 448.24H375.76V459.76H364.24V448.24Z " fill="#000000" opacity="1"></path><path d="M388.24 448.24H399.76V459.76H388.24V448.24Z " fill="#000000" opacity="1"></path><path d="M424.24 448.24H435.76V459.76H424.24V448.24Z " fill="#000000" opacity="1"></path><path d="M448.24 448.24H459.76V459.76H448.24V448.24Z " fill="#000000" opacity="1"></path><path d="M472.24 448.24H483.76V459.76H472.24V448.24Z " fill="#000000" opacity="1"></path><path d="M172.24 460.24H183.76000000000002V471.76H172.24V460.24Z " fill="#000000" opacity="1"></path><path d="M184.24 460.24H195.76000000000002V471.76H184.24V460.24Z " fill="#000000" opacity="1"></path><path d="M196.24 460.24H207.76000000000002V471.76H196.24V460.24Z " fill="#000000" opacity="1"></path><path d="M220.24 460.24H231.76000000000002V471.76H220.24V460.24Z " fill="#000000" opacity="1"></path><path d="M232.24 460.24H243.76000000000002V471.76H232.24V460.24Z " fill="#000000" opacity="1"></path><path d="M256.24 460.24H267.76V471.76H256.24V460.24Z " fill="#000000" opacity="1"></path><path d="M292.24 460.24H303.76V471.76H292.24V460.24Z " fill="#000000" opacity="1"></path><path d="M328.24 460.24H339.76V471.76H328.24V460.24Z " fill="#000000" opacity="1"></path><path d="M340.24 460.24H351.76V471.76H340.24V460.24Z " fill="#000000" opacity="1"></path><path d="M376.24 460.24H387.76V471.76H376.24V460.24Z " fill="#000000" opacity="1"></path><path d="M400.24 460.24H411.76V471.76H400.24V460.24Z " fill="#000000" opacity="1"></path><path d="M412.24 460.24H423.76V471.76H412.24V460.24Z " fill="#000000" opacity="1"></path><path d="M424.24 460.24H435.76V471.76H424.24V460.24Z " fill="#000000" opacity="1"></path><path d="M460.24 460.24H471.76V471.76H460.24V460.24Z " fill="#000000" opacity="1"></path><path d="M148.24 472.24H159.76000000000002V483.76H148.24V472.24Z " fill="#000000" opacity="1"></path><path d="M172.24 472.24H183.76000000000002V483.76H172.24V472.24Z " fill="#000000" opacity="1"></path><path d="M184.24 472.24H195.76000000000002V483.76H184.24V472.24Z " fill="#000000" opacity="1"></path><path d="M196.24 472.24H207.76000000000002V483.76H196.24V472.24Z " fill="#000000" opacity="1"></path><path d="M220.24 472.24H231.76000000000002V483.76H220.24V472.24Z " fill="#000000" opacity="1"></path><path d="M232.24 472.24H243.76000000000002V483.76H232.24V472.24Z " fill="#000000" opacity="1"></path><path d="M280.24 472.24H291.76V483.76H280.24V472.24Z " fill="#000000" opacity="1"></path><path d="M292.24 472.24H303.76V483.76H292.24V472.24Z " fill="#000000" opacity="1"></path><path d="M304.24 472.24H315.76V483.76H304.24V472.24Z " fill="#000000" opacity="1"></path><path d="M316.24 472.24H327.76V483.76H316.24V472.24Z " fill="#000000" opacity="1"></path><path d="M328.24 472.24H339.76V483.76H328.24V472.24Z " fill="#000000" opacity="1"></path><path d="M340.24 472.24H351.76V483.76H340.24V472.24Z " fill="#000000" opacity="1"></path><path d="M364.24 472.24H375.76V483.76H364.24V472.24Z " fill="#000000" opacity="1"></path><path d="M376.24 472.24H387.76V483.76H376.24V472.24Z " fill="#000000" opacity="1"></path><path d="M412.24 472.24H423.76V483.76H412.24V472.24Z " fill="#000000" opacity="1"></path><path d="M460.24 472.24H471.76V483.76H460.24V472.24Z " fill="#000000" opacity="1"></path><path d="M472.24 472.24H483.76V483.76H472.24V472.24Z " fill="#000000" opacity="1"></path><path d="M46 46H118V118H46V46Z " fill="none" stroke-width="12" stroke="#000000"></path><path d="M406 46H478V118H406V46Z " fill="none" stroke-width="12" stroke="#000000"></path><path d="M46 406H118V478H46V406Z " fill="none" stroke-width="12" stroke="#000000"></path><path d="M64 64H100V100H64V64Z " fill="#000000" opacity="1"></path><path d="M424 64H460V100H424V64Z " fill="#000000" opacity="1"></path><path d="M64 424H100V460H64V424Z " fill="#000000" opacity="1"></path><path d="M136 112H148V124H136V112Z " fill="#000000" opacity="1"></path><path d="M112 136H124V148H112V136Z " fill="#000000" opacity="1"></path><path d="M160 112H172V124H160V112Z " fill="#000000" opacity="1"></path><path d="M112 160H124V172H112V160Z " fill="#000000" opacity="1"></path><path d="M184 112H196V124H184V112Z " fill="#000000" opacity="1"></path><path d="M112 184H124V196H112V184Z " fill="#000000" opacity="1"></path><path d="M208 112H220V124H208V112Z " fill="#000000" opacity="1"></path><path d="M112 208H124V220H112V208Z " fill="#000000" opacity="1"></path><path d="M232 112H244V124H232V112Z " fill="#000000" opacity="1"></path><path d="M112 232H124V244H112V232Z " fill="#000000" opacity="1"></path><path d="M256 112H268V124H256V112Z " fill="#000000" opacity="1"></path><path d="M112 256H124V268H112V256Z " fill="#000000" opacity="1"></path><path d="M280 112H292V124H280V112Z " fill="#000000" opacity="1"></path><path d="M112 280H124V292H112V280Z " fill="#000000" opacity="1"></path><path d="M304 112H316V124H304V112Z " fill="#000000" opacity="1"></path><path d="M112 304H124V316H112V304Z " fill="#000000" opacity="1"></path><path d="M328 112H340V124H328V112Z " fill="#000000" opacity="1"></path><path d="M112 328H124V340H112V328Z " fill="#000000" opacity="1"></path><path d="M352 112H364V124H352V112Z " fill="#000000" opacity="1"></path><path d="M112 352H124V364H112V352Z " fill="#000000" opacity="1"></path><path d="M376 112H388V124H376V112Z " fill="#000000" opacity="1"></path><path d="M112 376H124V388H112V376Z " fill="#000000" opacity="1"></path><path d="M376 376H388V388H376V376Z " fill="#000000" opacity="1"></path><path d="M376 388H388V400H376V388Z " fill="#000000" opacity="1"></path><path d="M376 400H388V412H376V400Z " fill="#000000" opacity="1"></path><path d="M376 412H388V424H376V412Z " fill="#000000" opacity="1"></path><path d="M424 388H436V400H424V388Z " fill="#000000" opacity="1"></path><path d="M424 400H436V412H424V400Z " fill="#000000" opacity="1"></path><path d="M424 412H436V424H424V412Z " fill="#000000" opacity="1"></path><path d="M424 424H436V436H424V424Z " fill="#000000" opacity="1"></path><path d="M388 376H400V388H388V376Z " fill="#000000" opacity="1"></path><path d="M400 376H412V388H400V376Z " fill="#000000" opacity="1"></path><path d="M412 376H424V388H412V376Z " fill="#000000" opacity="1"></path><path d="M424 376H436V388H424V376Z " fill="#000000" opacity="1"></path><path d="M376 424H388V436H376V424Z " fill="#000000" opacity="1"></path><path d="M388 424H400V436H388V424Z " fill="#000000" opacity="1"></path><path d="M400 424H412V436H400V424Z " fill="#000000" opacity="1"></path><path d="M412 424H424V436H412V424Z " fill="#000000" opacity="1"></path><path d="M400 400H412V412H400V400Z " fill="#000000" opacity="1"></path></svg>