<svg xmlns="http://www.w3.org/2000/svg" version="1.1" xmlns:xlink="http://www.w3.org/1999/xlink" xmlns:svgjs="http://svgjs.com/svgjs" width="524" height="524" viewBox="0 0 524 524" fill="#ffffff"><path d="M136 46A6 6 0 1 1 148 46A6 6 0 1 1 136 46 " fill="#0e2574" opacity="1"></path><path d="M148 46A6 6 0 1 1 160 46A6 6 0 1 1 148 46 " fill="#0e2574" opacity="1"></path><path d="M160 46A6 6 0 1 1 172 46A6 6 0 1 1 160 46 " fill="#0e2574" opacity="1"></path><path d="M184 46A6 6 0 1 1 196 46A6 6 0 1 1 184 46 " fill="#0e2574" opacity="1"></path><path d="M196 46A6 6 0 1 1 208 46A6 6 0 1 1 196 46 " fill="#0e2574" opacity="1"></path><path d="M256 46A6 6 0 1 1 268 46A6 6 0 1 1 256 46 " fill="#0e2574" opacity="1"></path><path d="M268 46A6 6 0 1 1 280 46A6 6 0 1 1 268 46 " fill="#0e2574" opacity="1"></path><path d="M292 46A6 6 0 1 1 304 46A6 6 0 1 1 292 46 " fill="#0e2574" opacity="1"></path><path d="M304 46A6 6 0 1 1 316 46A6 6 0 1 1 304 46 " fill="#0e2574" opacity="1"></path><path d="M352 46A6 6 0 1 1 364 46A6 6 0 1 1 352 46 " fill="#0e2574" opacity="1"></path><path d="M364 46A6 6 0 1 1 376 46A6 6 0 1 1 364 46 " fill="#0e2574" opacity="1"></path><path d="M148 58A6 6 0 1 1 160 58A6 6 0 1 1 148 58 " fill="#0e2574" opacity="1"></path><path d="M184 58A6 6 0 1 1 196 58A6 6 0 1 1 184 58 " fill="#0e2574" opacity="1"></path><path d="M268 58A6 6 0 1 1 280 58A6 6 0 1 1 268 58 " fill="#122d7f" opacity="1"></path><path d="M280 58A6 6 0 1 1 292 58A6 6 0 1 1 280 58 " fill="#112d7f" opacity="1"></path><path d="M292 58A6 6 0 1 1 304 58A6 6 0 1 1 292 58 " fill="#112c7d" opacity="1"></path><path d="M304 58A6 6 0 1 1 316 58A6 6 0 1 1 304 58 " fill="#102a7c" opacity="1"></path><path d="M328 58A6 6 0 1 1 340 58A6 6 0 1 1 328 58 " fill="#0f2676" opacity="1"></path><path d="M340 58A6 6 0 1 1 352 58A6 6 0 1 1 340 58 " fill="#0e2574" opacity="1"></path><path d="M352 58A6 6 0 1 1 364 58A6 6 0 1 1 352 58 " fill="#0e2574" opacity="1"></path><path d="M364 58A6 6 0 1 1 376 58A6 6 0 1 1 364 58 " fill="#0e2574" opacity="1"></path><path d="M148 70A6 6 0 1 1 160 70A6 6 0 1 1 148 70 " fill="#0e2574" opacity="1"></path><path d="M172 70A6 6 0 1 1 184 70A6 6 0 1 1 172 70 " fill="#0f2879" opacity="1"></path><path d="M184 70A6 6 0 1 1 196 70A6 6 0 1 1 184 70 " fill="#112c7d" opacity="1"></path><path d="M196 70A6 6 0 1 1 208 70A6 6 0 1 1 196 70 " fill="#122e81" opacity="1"></path><path d="M208 70A6 6 0 1 1 220 70A6 6 0 1 1 208 70 " fill="#133184" opacity="1"></path><path d="M244 70A6 6 0 1 1 256 70A6 6 0 1 1 244 70 " fill="#15358a" opacity="1"></path><path d="M256 70A6 6 0 1 1 268 70A6 6 0 1 1 256 70 " fill="#15358a" opacity="1"></path><path d="M268 70A6 6 0 1 1 280 70A6 6 0 1 1 268 70 " fill="#15358a" opacity="1"></path><path d="M292 70A6 6 0 1 1 304 70A6 6 0 1 1 292 70 " fill="#143488" opacity="1"></path><path d="M316 70A6 6 0 1 1 328 70A6 6 0 1 1 316 70 " fill="#133084" opacity="1"></path><path d="M328 70A6 6 0 1 1 340 70A6 6 0 1 1 328 70 " fill="#122e81" opacity="1"></path><path d="M364 70A6 6 0 1 1 376 70A6 6 0 1 1 364 70 " fill="#0e2574" opacity="1"></path><path d="M376 70A6 6 0 1 1 388 70A6 6 0 1 1 376 70 " fill="#0e2574" opacity="1"></path><path d="M136 82A6 6 0 1 1 148 82A6 6 0 1 1 136 82 " fill="#0e2574" opacity="1"></path><path d="M196 82A6 6 0 1 1 208 82A6 6 0 1 1 196 82 " fill="#15368b" opacity="1"></path><path d="M232 82A6 6 0 1 1 244 82A6 6 0 1 1 232 82 " fill="#183c93" opacity="1"></path><path d="M244 82A6 6 0 1 1 256 82A6 6 0 1 1 244 82 " fill="#183d95" opacity="1"></path><path d="M292 82A6 6 0 1 1 304 82A6 6 0 1 1 292 82 " fill="#183c93" opacity="1"></path><path d="M316 82A6 6 0 1 1 328 82A6 6 0 1 1 316 82 " fill="#16388e" opacity="1"></path><path d="M328 82A6 6 0 1 1 340 82A6 6 0 1 1 328 82 " fill="#15368b" opacity="1"></path><path d="M352 82A6 6 0 1 1 364 82A6 6 0 1 1 352 82 " fill="#122f82" opacity="1"></path><path d="M364 82A6 6 0 1 1 376 82A6 6 0 1 1 364 82 " fill="#112c7d" opacity="1"></path><path d="M148 94A6 6 0 1 1 160 94A6 6 0 1 1 148 94 " fill="#122f81" opacity="1"></path><path d="M160 94A6 6 0 1 1 172 94A6 6 0 1 1 160 94 " fill="#143387" opacity="1"></path><path d="M196 94A6 6 0 1 1 208 94A6 6 0 1 1 196 94 " fill="#183d96" opacity="1"></path><path d="M220 94A6 6 0 1 1 232 94A6 6 0 1 1 220 94 " fill="#1a429c" opacity="1"></path><path d="M244 94A6 6 0 1 1 256 94A6 6 0 1 1 244 94 " fill="#1c45a0" opacity="1"></path><path d="M256 94A6 6 0 1 1 268 94A6 6 0 1 1 256 94 " fill="#1c45a0" opacity="1"></path><path d="M340 94A6 6 0 1 1 352 94A6 6 0 1 1 340 94 " fill="#173a91" opacity="1"></path><path d="M352 94A6 6 0 1 1 364 94A6 6 0 1 1 352 94 " fill="#15368c" opacity="1"></path><path d="M364 94A6 6 0 1 1 376 94A6 6 0 1 1 364 94 " fill="#143387" opacity="1"></path><path d="M376 94A6 6 0 1 1 388 94A6 6 0 1 1 376 94 " fill="#122e81" opacity="1"></path><path d="M172 106A6 6 0 1 1 184 106A6 6 0 1 1 172 106 " fill="#193e96" opacity="1"></path><path d="M196 106A6 6 0 1 1 208 106A6 6 0 1 1 196 106 " fill="#1c45a0" opacity="1"></path><path d="M220 106A6 6 0 1 1 232 106A6 6 0 1 1 220 106 " fill="#1e4aa7" opacity="1"></path><path d="M268 106A6 6 0 1 1 280 106A6 6 0 1 1 268 106 " fill="#1f4dab" opacity="1"></path><path d="M280 106A6 6 0 1 1 292 106A6 6 0 1 1 280 106 " fill="#1f4cab" opacity="1"></path><path d="M316 106A6 6 0 1 1 328 106A6 6 0 1 1 316 106 " fill="#1d47a3" opacity="1"></path><path d="M328 106A6 6 0 1 1 340 106A6 6 0 1 1 328 106 " fill="#1b44a0" opacity="1"></path><path d="M352 106A6 6 0 1 1 364 106A6 6 0 1 1 352 106 " fill="#183d96" opacity="1"></path><path d="M364 106A6 6 0 1 1 376 106A6 6 0 1 1 364 106 " fill="#173990" opacity="1"></path><path d="M376 106A6 6 0 1 1 388 106A6 6 0 1 1 376 106 " fill="#15358a" opacity="1"></path><path d="M160 130A6 6 0 1 1 172 130A6 6 0 1 1 160 130 " fill="#1d47a3" opacity="1"></path><path d="M196 130A6 6 0 1 1 208 130A6 6 0 1 1 196 130 " fill="#2253b4" opacity="1"></path><path d="M208 130A6 6 0 1 1 220 130A6 6 0 1 1 208 130 " fill="#2356b8" opacity="1"></path><path d="M220 130A6 6 0 1 1 232 130A6 6 0 1 1 220 130 " fill="#2459bc" opacity="1"></path><path d="M232 130A6 6 0 1 1 244 130A6 6 0 1 1 232 130 " fill="#255bbf" opacity="1"></path><path d="M244 130A6 6 0 1 1 256 130A6 6 0 1 1 244 130 " fill="#265cc1" opacity="1"></path><path d="M280 130A6 6 0 1 1 292 130A6 6 0 1 1 280 130 " fill="#265cc1" opacity="1"></path><path d="M292 130A6 6 0 1 1 304 130A6 6 0 1 1 292 130 " fill="#255bbf" opacity="1"></path><path d="M328 130A6 6 0 1 1 340 130A6 6 0 1 1 328 130 " fill="#2253b4" opacity="1"></path><path d="M376 130A6 6 0 1 1 388 130A6 6 0 1 1 376 130 " fill="#1a429c" opacity="1"></path><path d="M64 142A6 6 0 1 1 76 142A6 6 0 1 1 64 142 " fill="#0e2574" opacity="1"></path><path d="M148 142A6 6 0 1 1 160 142A6 6 0 1 1 148 142 " fill="#1d48a5" opacity="1"></path><path d="M160 142A6 6 0 1 1 172 142A6 6 0 1 1 160 142 " fill="#1f4dac" opacity="1"></path><path d="M172 142A6 6 0 1 1 184 142A6 6 0 1 1 172 142 " fill="#2152b2" opacity="1"></path><path d="M184 142A6 6 0 1 1 196 142A6 6 0 1 1 184 142 " fill="#2356b8" opacity="1"></path><path d="M220 142A6 6 0 1 1 232 142A6 6 0 1 1 220 142 " fill="#2760c7" opacity="1"></path><path d="M232 142A6 6 0 1 1 244 142A6 6 0 1 1 232 142 " fill="#2863ca" opacity="1"></path><path d="M256 142A6 6 0 1 1 268 142A6 6 0 1 1 256 142 " fill="#2965cd" opacity="1"></path><path d="M268 142A6 6 0 1 1 280 142A6 6 0 1 1 268 142 " fill="#2965cd" opacity="1"></path><path d="M292 142A6 6 0 1 1 304 142A6 6 0 1 1 292 142 " fill="#2862c9" opacity="1"></path><path d="M304 142A6 6 0 1 1 316 142A6 6 0 1 1 304 142 " fill="#2760c6" opacity="1"></path><path d="M316 142A6 6 0 1 1 328 142A6 6 0 1 1 316 142 " fill="#265dc2" opacity="1"></path><path d="M364 142A6 6 0 1 1 376 142A6 6 0 1 1 364 142 " fill="#1f4dab" opacity="1"></path><path d="M376 142A6 6 0 1 1 388 142A6 6 0 1 1 376 142 " fill="#1d48a4" opacity="1"></path><path d="M388 142A6 6 0 1 1 400 142A6 6 0 1 1 388 142 " fill="#1a429c" opacity="1"></path><path d="M436 142A6 6 0 1 1 448 142A6 6 0 1 1 436 142 " fill="#102a7a" opacity="1"></path><path d="M472 142A6 6 0 1 1 484 142A6 6 0 1 1 472 142 " fill="#0e2574" opacity="1"></path><path d="M88 154A6 6 0 1 1 100 154A6 6 0 1 1 88 154 " fill="#122f81" opacity="1"></path><path d="M100 154A6 6 0 1 1 112 154A6 6 0 1 1 100 154 " fill="#15358b" opacity="1"></path><path d="M124 154A6 6 0 1 1 136 154A6 6 0 1 1 124 154 " fill="#1a429c" opacity="1"></path><path d="M148 154A6 6 0 1 1 160 154A6 6 0 1 1 148 154 " fill="#1f4ead" opacity="1"></path><path d="M160 154A6 6 0 1 1 172 154A6 6 0 1 1 160 154 " fill="#2253b4" opacity="1"></path><path d="M172 154A6 6 0 1 1 184 154A6 6 0 1 1 172 154 " fill="#2458bb" opacity="1"></path><path d="M184 154A6 6 0 1 1 196 154A6 6 0 1 1 184 154 " fill="#265dc2" opacity="1"></path><path d="M196 154A6 6 0 1 1 208 154A6 6 0 1 1 196 154 " fill="#2861c8" opacity="1"></path><path d="M232 154A6 6 0 1 1 244 154A6 6 0 1 1 232 154 " fill="#2c6ad4" opacity="1"></path><path d="M244 154A6 6 0 1 1 256 154A6 6 0 1 1 244 154 " fill="#2c6cd6" opacity="1"></path><path d="M256 154A6 6 0 1 1 268 154A6 6 0 1 1 256 154 " fill="#2d6dd8" opacity="1"></path><path d="M316 154A6 6 0 1 1 328 154A6 6 0 1 1 316 154 " fill="#2965cc" opacity="1"></path><path d="M364 154A6 6 0 1 1 376 154A6 6 0 1 1 364 154 " fill="#2253b3" opacity="1"></path><path d="M400 154A6 6 0 1 1 412 154A6 6 0 1 1 400 154 " fill="#1a419b" opacity="1"></path><path d="M460 154A6 6 0 1 1 472 154A6 6 0 1 1 460 154 " fill="#0e2574" opacity="1"></path><path d="M472 154A6 6 0 1 1 484 154A6 6 0 1 1 472 154 " fill="#0e2574" opacity="1"></path><path d="M52 166A6 6 0 1 1 64 166A6 6 0 1 1 52 166 " fill="#0e2574" opacity="1"></path><path d="M136 166A6 6 0 1 1 148 166A6 6 0 1 1 136 166 " fill="#1f4dac" opacity="1"></path><path d="M148 166A6 6 0 1 1 160 166A6 6 0 1 1 148 166 " fill="#2253b4" opacity="1"></path><path d="M160 166A6 6 0 1 1 172 166A6 6 0 1 1 160 166 " fill="#2459bc" opacity="1"></path><path d="M196 166A6 6 0 1 1 208 166A6 6 0 1 1 196 166 " fill="#2b68d1" opacity="1"></path><path d="M220 166A6 6 0 1 1 232 166A6 6 0 1 1 220 166 " fill="#2e6fdb" opacity="1"></path><path d="M256 166A6 6 0 1 1 268 166A6 6 0 1 1 256 166 " fill="#3075e3" opacity="1"></path><path d="M268 166A6 6 0 1 1 280 166A6 6 0 1 1 268 166 " fill="#3075e3" opacity="1"></path><path d="M292 166A6 6 0 1 1 304 166A6 6 0 1 1 292 166 " fill="#2f72df" opacity="1"></path><path d="M316 166A6 6 0 1 1 328 166A6 6 0 1 1 316 166 " fill="#2c6cd6" opacity="1"></path><path d="M340 166A6 6 0 1 1 352 166A6 6 0 1 1 340 166 " fill="#2963ca" opacity="1"></path><path d="M400 166A6 6 0 1 1 412 166A6 6 0 1 1 400 166 " fill="#1c46a2" opacity="1"></path><path d="M424 166A6 6 0 1 1 436 166A6 6 0 1 1 424 166 " fill="#173990" opacity="1"></path><path d="M448 166A6 6 0 1 1 460 166A6 6 0 1 1 448 166 " fill="#112b7d" opacity="1"></path><path d="M460 166A6 6 0 1 1 472 166A6 6 0 1 1 460 166 " fill="#0e2574" opacity="1"></path><path d="M472 166A6 6 0 1 1 484 166A6 6 0 1 1 472 166 " fill="#0e2574" opacity="1"></path><path d="M52 178A6 6 0 1 1 64 178A6 6 0 1 1 52 178 " fill="#0e2574" opacity="1"></path><path d="M64 178A6 6 0 1 1 76 178A6 6 0 1 1 64 178 " fill="#0f2879" opacity="1"></path><path d="M124 178A6 6 0 1 1 136 178A6 6 0 1 1 124 178 " fill="#1e4ba9" opacity="1"></path><path d="M160 178A6 6 0 1 1 172 178A6 6 0 1 1 160 178 " fill="#275ec4" opacity="1"></path><path d="M172 178A6 6 0 1 1 184 178A6 6 0 1 1 172 178 " fill="#2964cc" opacity="1"></path><path d="M184 178A6 6 0 1 1 196 178A6 6 0 1 1 184 178 " fill="#2b6ad3" opacity="1"></path><path d="M208 178A6 6 0 1 1 220 178A6 6 0 1 1 208 178 " fill="#2f73e0" opacity="1"></path><path d="M244 178A6 6 0 1 1 256 178A6 6 0 1 1 244 178 " fill="#337cec" opacity="1"></path><path d="M256 178A6 6 0 1 1 268 178A6 6 0 1 1 256 178 " fill="#347dee" opacity="1"></path><path d="M268 178A6 6 0 1 1 280 178A6 6 0 1 1 268 178 " fill="#347dee" opacity="1"></path><path d="M280 178A6 6 0 1 1 292 178A6 6 0 1 1 280 178 " fill="#337bec" opacity="1"></path><path d="M292 178A6 6 0 1 1 304 178A6 6 0 1 1 292 178 " fill="#3279e9" opacity="1"></path><path d="M304 178A6 6 0 1 1 316 178A6 6 0 1 1 304 178 " fill="#3176e5" opacity="1"></path><path d="M316 178A6 6 0 1 1 328 178A6 6 0 1 1 316 178 " fill="#2f73e0" opacity="1"></path><path d="M328 178A6 6 0 1 1 340 178A6 6 0 1 1 328 178 " fill="#2d6eda" opacity="1"></path><path d="M340 178A6 6 0 1 1 352 178A6 6 0 1 1 340 178 " fill="#2b69d3" opacity="1"></path><path d="M352 178A6 6 0 1 1 364 178A6 6 0 1 1 352 178 " fill="#2964cb" opacity="1"></path><path d="M364 178A6 6 0 1 1 376 178A6 6 0 1 1 364 178 " fill="#265ec3" opacity="1"></path><path d="M376 178A6 6 0 1 1 388 178A6 6 0 1 1 376 178 " fill="#2458ba" opacity="1"></path><path d="M388 178A6 6 0 1 1 400 178A6 6 0 1 1 388 178 " fill="#2151b2" opacity="1"></path><path d="M472 178A6 6 0 1 1 484 178A6 6 0 1 1 472 178 " fill="#0e2574" opacity="1"></path><path d="M40 190A6 6 0 1 1 52 190A6 6 0 1 1 40 190 " fill="#0e2574" opacity="1"></path><path d="M88 190A6 6 0 1 1 100 190A6 6 0 1 1 88 190 " fill="#173a91" opacity="1"></path><path d="M148 190A6 6 0 1 1 160 190A6 6 0 1 1 148 190 " fill="#265dc2" opacity="1"></path><path d="M232 190A6 6 0 1 1 244 190A6 6 0 1 1 232 190 " fill="#3581f4" opacity="1"></path><path d="M244 190A6 6 0 1 1 256 190A6 6 0 1 1 244 190 " fill="#3683f7" opacity="1"></path><path d="M280 190A6 6 0 1 1 292 190A6 6 0 1 1 280 190 " fill="#3683f7" opacity="1"></path><path d="M292 190A6 6 0 1 1 304 190A6 6 0 1 1 292 190 " fill="#3581f3" opacity="1"></path><path d="M328 190A6 6 0 1 1 340 190A6 6 0 1 1 328 190 " fill="#3074e2" opacity="1"></path><path d="M340 190A6 6 0 1 1 352 190A6 6 0 1 1 340 190 " fill="#2e6fdb" opacity="1"></path><path d="M376 190A6 6 0 1 1 388 190A6 6 0 1 1 376 190 " fill="#265cc1" opacity="1"></path><path d="M388 190A6 6 0 1 1 400 190A6 6 0 1 1 388 190 " fill="#2356b8" opacity="1"></path><path d="M400 190A6 6 0 1 1 412 190A6 6 0 1 1 400 190 " fill="#204fae" opacity="1"></path><path d="M412 190A6 6 0 1 1 424 190A6 6 0 1 1 412 190 " fill="#1d48a4" opacity="1"></path><path d="M472 190A6 6 0 1 1 484 190A6 6 0 1 1 472 190 " fill="#0e2574" opacity="1"></path><path d="M40 202A6 6 0 1 1 52 202A6 6 0 1 1 40 202 " fill="#0e2574" opacity="1"></path><path d="M64 202A6 6 0 1 1 76 202A6 6 0 1 1 64 202 " fill="#122e81" opacity="1"></path><path d="M76 202A6 6 0 1 1 88 202A6 6 0 1 1 76 202 " fill="#15368b" opacity="1"></path><path d="M88 202A6 6 0 1 1 100 202A6 6 0 1 1 88 202 " fill="#183d96" opacity="1"></path><path d="M100 202A6 6 0 1 1 112 202A6 6 0 1 1 100 202 " fill="#1c45a0" opacity="1"></path><path d="M148 202A6 6 0 1 1 160 202A6 6 0 1 1 148 202 " fill="#2861c8" opacity="1"></path><path d="M160 202A6 6 0 1 1 172 202A6 6 0 1 1 160 202 " fill="#2b68d1" opacity="1"></path><path d="M172 202A6 6 0 1 1 184 202A6 6 0 1 1 172 202 " fill="#2e6fda" opacity="1"></path><path d="M184 202A6 6 0 1 1 196 202A6 6 0 1 1 184 202 " fill="#3075e3" opacity="1"></path><path d="M316 202A6 6 0 1 1 328 202A6 6 0 1 1 316 202 " fill="#3580f2" opacity="1"></path><path d="M352 202A6 6 0 1 1 364 202A6 6 0 1 1 352 202 " fill="#2d6ed9" opacity="1"></path><path d="M376 202A6 6 0 1 1 388 202A6 6 0 1 1 376 202 " fill="#2861c7" opacity="1"></path><path d="M400 202A6 6 0 1 1 412 202A6 6 0 1 1 400 202 " fill="#2253b3" opacity="1"></path><path d="M436 202A6 6 0 1 1 448 202A6 6 0 1 1 436 202 " fill="#183d95" opacity="1"></path><path d="M448 202A6 6 0 1 1 460 202A6 6 0 1 1 448 202 " fill="#15358a" opacity="1"></path><path d="M460 202A6 6 0 1 1 472 202A6 6 0 1 1 460 202 " fill="#122e80" opacity="1"></path><path d="M472 202A6 6 0 1 1 484 202A6 6 0 1 1 472 202 " fill="#0e2675" opacity="1"></path><path d="M64 214A6 6 0 1 1 76 214A6 6 0 1 1 64 214 " fill="#133184" opacity="1"></path><path d="M88 214A6 6 0 1 1 100 214A6 6 0 1 1 88 214 " fill="#194099" opacity="1"></path><path d="M100 214A6 6 0 1 1 112 214A6 6 0 1 1 100 214 " fill="#1d47a4" opacity="1"></path><path d="M148 214A6 6 0 1 1 160 214A6 6 0 1 1 148 214 " fill="#2965cd" opacity="1"></path><path d="M160 214A6 6 0 1 1 172 214A6 6 0 1 1 160 214 " fill="#2c6cd7" opacity="1"></path><path d="M172 214A6 6 0 1 1 184 214A6 6 0 1 1 172 214 " fill="#2f73e0" opacity="1"></path><path d="M316 214A6 6 0 1 1 328 214A6 6 0 1 1 316 214 " fill="#3785fa" opacity="1"></path><path d="M328 214A6 6 0 1 1 340 214A6 6 0 1 1 328 214 " fill="#357ff2" opacity="1"></path><path d="M340 214A6 6 0 1 1 352 214A6 6 0 1 1 340 214 " fill="#3279e9" opacity="1"></path><path d="M376 214A6 6 0 1 1 388 214A6 6 0 1 1 376 214 " fill="#2964cc" opacity="1"></path><path d="M400 214A6 6 0 1 1 412 214A6 6 0 1 1 400 214 " fill="#2356b8" opacity="1"></path><path d="M412 214A6 6 0 1 1 424 214A6 6 0 1 1 412 214 " fill="#204ead" opacity="1"></path><path d="M448 214A6 6 0 1 1 460 214A6 6 0 1 1 448 214 " fill="#16388e" opacity="1"></path><path d="M460 214A6 6 0 1 1 472 214A6 6 0 1 1 460 214 " fill="#133083" opacity="1"></path><path d="M472 214A6 6 0 1 1 484 214A6 6 0 1 1 472 214 " fill="#0f2878" opacity="1"></path><path d="M40 226A6 6 0 1 1 52 226A6 6 0 1 1 40 226 " fill="#0e2574" opacity="1"></path><path d="M52 226A6 6 0 1 1 64 226A6 6 0 1 1 52 226 " fill="#102b7c" opacity="1"></path><path d="M76 226A6 6 0 1 1 88 226A6 6 0 1 1 76 226 " fill="#173a91" opacity="1"></path><path d="M88 226A6 6 0 1 1 100 226A6 6 0 1 1 88 226 " fill="#1a429c" opacity="1"></path><path d="M100 226A6 6 0 1 1 112 226A6 6 0 1 1 100 226 " fill="#1e4aa7" opacity="1"></path><path d="M124 226A6 6 0 1 1 136 226A6 6 0 1 1 124 226 " fill="#2459bc" opacity="1"></path><path d="M136 226A6 6 0 1 1 148 226A6 6 0 1 1 136 226 " fill="#2760c7" opacity="1"></path><path d="M172 226A6 6 0 1 1 184 226A6 6 0 1 1 172 226 " fill="#3177e5" opacity="1"></path><path d="M316 226A6 6 0 1 1 328 226A6 6 0 1 1 316 226 " fill="#3887fc" opacity="1"></path><path d="M328 226A6 6 0 1 1 340 226A6 6 0 1 1 328 226 " fill="#3784f8" opacity="1"></path><path d="M340 226A6 6 0 1 1 352 226A6 6 0 1 1 340 226 " fill="#347dee" opacity="1"></path><path d="M352 226A6 6 0 1 1 364 226A6 6 0 1 1 352 226 " fill="#3176e5" opacity="1"></path><path d="M364 226A6 6 0 1 1 376 226A6 6 0 1 1 364 226 " fill="#2e6fda" opacity="1"></path><path d="M376 226A6 6 0 1 1 388 226A6 6 0 1 1 376 226 " fill="#2a67d0" opacity="1"></path><path d="M400 226A6 6 0 1 1 412 226A6 6 0 1 1 400 226 " fill="#2458bb" opacity="1"></path><path d="M424 226A6 6 0 1 1 436 226A6 6 0 1 1 424 226 " fill="#1d49a6" opacity="1"></path><path d="M472 226A6 6 0 1 1 484 226A6 6 0 1 1 472 226 " fill="#102a7b" opacity="1"></path><path d="M64 238A6 6 0 1 1 76 238A6 6 0 1 1 64 238 " fill="#143489" opacity="1"></path><path d="M76 238A6 6 0 1 1 88 238A6 6 0 1 1 76 238 " fill="#183c93" opacity="1"></path><path d="M88 238A6 6 0 1 1 100 238A6 6 0 1 1 88 238 " fill="#1b439e" opacity="1"></path><path d="M100 238A6 6 0 1 1 112 238A6 6 0 1 1 100 238 " fill="#1e4ba9" opacity="1"></path><path d="M124 238A6 6 0 1 1 136 238A6 6 0 1 1 124 238 " fill="#255bbf" opacity="1"></path><path d="M148 238A6 6 0 1 1 160 238A6 6 0 1 1 148 238 " fill="#2c6ad4" opacity="1"></path><path d="M172 238A6 6 0 1 1 184 238A6 6 0 1 1 172 238 " fill="#327ae9" opacity="1"></path><path d="M184 238A6 6 0 1 1 196 238A6 6 0 1 1 184 238 " fill="#3581f4" opacity="1"></path><path d="M328 238A6 6 0 1 1 340 238A6 6 0 1 1 328 238 " fill="#3887fc" opacity="1"></path><path d="M340 238A6 6 0 1 1 352 238A6 6 0 1 1 340 238 " fill="#3580f3" opacity="1"></path><path d="M352 238A6 6 0 1 1 364 238A6 6 0 1 1 352 238 " fill="#3279e9" opacity="1"></path><path d="M400 238A6 6 0 1 1 412 238A6 6 0 1 1 400 238 " fill="#255abe" opacity="1"></path><path d="M412 238A6 6 0 1 1 424 238A6 6 0 1 1 412 238 " fill="#2152b3" opacity="1"></path><path d="M436 238A6 6 0 1 1 448 238A6 6 0 1 1 436 238 " fill="#1b439d" opacity="1"></path><path d="M472 238A6 6 0 1 1 484 238A6 6 0 1 1 472 238 " fill="#112b7d" opacity="1"></path><path d="M40 250A6 6 0 1 1 52 250A6 6 0 1 1 40 250 " fill="#0e2574" opacity="1"></path><path d="M52 250A6 6 0 1 1 64 250A6 6 0 1 1 52 250 " fill="#112d7f" opacity="1"></path><path d="M124 250A6 6 0 1 1 136 250A6 6 0 1 1 124 250 " fill="#265cc1" opacity="1"></path><path d="M148 250A6 6 0 1 1 160 250A6 6 0 1 1 148 250 " fill="#2c6cd6" opacity="1"></path><path d="M160 250A6 6 0 1 1 172 250A6 6 0 1 1 160 250 " fill="#3074e1" opacity="1"></path><path d="M184 250A6 6 0 1 1 196 250A6 6 0 1 1 184 250 " fill="#3683f7" opacity="1"></path><path d="M316 250A6 6 0 1 1 328 250A6 6 0 1 1 316 250 " fill="#3887fc" opacity="1"></path><path d="M376 250A6 6 0 1 1 388 250A6 6 0 1 1 376 250 " fill="#2c6bd6" opacity="1"></path><path d="M388 250A6 6 0 1 1 400 250A6 6 0 1 1 388 250 " fill="#2963cb" opacity="1"></path><path d="M400 250A6 6 0 1 1 412 250A6 6 0 1 1 400 250 " fill="#255cc0" opacity="1"></path><path d="M448 250A6 6 0 1 1 460 250A6 6 0 1 1 448 250 " fill="#183c94" opacity="1"></path><path d="M460 250A6 6 0 1 1 472 250A6 6 0 1 1 460 250 " fill="#143489" opacity="1"></path><path d="M472 250A6 6 0 1 1 484 250A6 6 0 1 1 472 250 " fill="#112c7e" opacity="1"></path><path d="M40 262A6 6 0 1 1 52 262A6 6 0 1 1 40 262 " fill="#0e2574" opacity="1"></path><path d="M52 262A6 6 0 1 1 64 262A6 6 0 1 1 52 262 " fill="#122d7f" opacity="1"></path><path d="M88 262A6 6 0 1 1 100 262A6 6 0 1 1 88 262 " fill="#1c45a0" opacity="1"></path><path d="M124 262A6 6 0 1 1 136 262A6 6 0 1 1 124 262 " fill="#265dc2" opacity="1"></path><path d="M136 262A6 6 0 1 1 148 262A6 6 0 1 1 136 262 " fill="#2965cd" opacity="1"></path><path d="M148 262A6 6 0 1 1 160 262A6 6 0 1 1 148 262 " fill="#2d6dd8" opacity="1"></path><path d="M160 262A6 6 0 1 1 172 262A6 6 0 1 1 160 262 " fill="#3075e3" opacity="1"></path><path d="M376 262A6 6 0 1 1 388 262A6 6 0 1 1 376 262 " fill="#2c6cd7" opacity="1"></path><path d="M400 262A6 6 0 1 1 412 262A6 6 0 1 1 400 262 " fill="#265cc1" opacity="1"></path><path d="M412 262A6 6 0 1 1 424 262A6 6 0 1 1 412 262 " fill="#2254b6" opacity="1"></path><path d="M424 262A6 6 0 1 1 436 262A6 6 0 1 1 424 262 " fill="#1f4cab" opacity="1"></path><path d="M436 262A6 6 0 1 1 448 262A6 6 0 1 1 436 262 " fill="#1b44a0" opacity="1"></path><path d="M460 262A6 6 0 1 1 472 262A6 6 0 1 1 460 262 " fill="#15358a" opacity="1"></path><path d="M472 262A6 6 0 1 1 484 262A6 6 0 1 1 472 262 " fill="#112d7f" opacity="1"></path><path d="M40 274A6 6 0 1 1 52 274A6 6 0 1 1 40 274 " fill="#0e2574" opacity="1"></path><path d="M64 274A6 6 0 1 1 76 274A6 6 0 1 1 64 274 " fill="#15358a" opacity="1"></path><path d="M76 274A6 6 0 1 1 88 274A6 6 0 1 1 76 274 " fill="#183d95" opacity="1"></path><path d="M100 274A6 6 0 1 1 112 274A6 6 0 1 1 100 274 " fill="#1f4dab" opacity="1"></path><path d="M148 274A6 6 0 1 1 160 274A6 6 0 1 1 148 274 " fill="#2d6dd8" opacity="1"></path><path d="M172 274A6 6 0 1 1 184 274A6 6 0 1 1 172 274 " fill="#347dee" opacity="1"></path><path d="M340 274A6 6 0 1 1 352 274A6 6 0 1 1 340 274 " fill="#3784f8" opacity="1"></path><path d="M352 274A6 6 0 1 1 364 274A6 6 0 1 1 352 274 " fill="#337ced" opacity="1"></path><path d="M364 274A6 6 0 1 1 376 274A6 6 0 1 1 364 274 " fill="#3074e2" opacity="1"></path><path d="M388 274A6 6 0 1 1 400 274A6 6 0 1 1 388 274 " fill="#2964cc" opacity="1"></path><path d="M460 274A6 6 0 1 1 472 274A6 6 0 1 1 460 274 " fill="#153489" opacity="1"></path><path d="M40 286A6 6 0 1 1 52 286A6 6 0 1 1 40 286 " fill="#0e2574" opacity="1"></path><path d="M76 286A6 6 0 1 1 88 286A6 6 0 1 1 76 286 " fill="#183d95" opacity="1"></path><path d="M136 286A6 6 0 1 1 148 286A6 6 0 1 1 136 286 " fill="#2964cb" opacity="1"></path><path d="M148 286A6 6 0 1 1 160 286A6 6 0 1 1 148 286 " fill="#2c6cd6" opacity="1"></path><path d="M184 286A6 6 0 1 1 196 286A6 6 0 1 1 184 286 " fill="#3683f7" opacity="1"></path><path d="M316 286A6 6 0 1 1 328 286A6 6 0 1 1 316 286 " fill="#3887fc" opacity="1"></path><path d="M340 286A6 6 0 1 1 352 286A6 6 0 1 1 340 286 " fill="#3683f6" opacity="1"></path><path d="M376 286A6 6 0 1 1 388 286A6 6 0 1 1 376 286 " fill="#2c6bd5" opacity="1"></path><path d="M400 286A6 6 0 1 1 412 286A6 6 0 1 1 400 286 " fill="#255bc0" opacity="1"></path><path d="M412 286A6 6 0 1 1 424 286A6 6 0 1 1 412 286 " fill="#2254b5" opacity="1"></path><path d="M40 298A6 6 0 1 1 52 298A6 6 0 1 1 40 298 " fill="#0e2574" opacity="1"></path><path d="M76 298A6 6 0 1 1 88 298A6 6 0 1 1 76 298 " fill="#183c93" opacity="1"></path><path d="M88 298A6 6 0 1 1 100 298A6 6 0 1 1 88 298 " fill="#1b439e" opacity="1"></path><path d="M124 298A6 6 0 1 1 136 298A6 6 0 1 1 124 298 " fill="#255bbf" opacity="1"></path><path d="M184 298A6 6 0 1 1 196 298A6 6 0 1 1 184 298 " fill="#3581f3" opacity="1"></path><path d="M316 298A6 6 0 1 1 328 298A6 6 0 1 1 316 298 " fill="#3887fc" opacity="1"></path><path d="M328 298A6 6 0 1 1 340 298A6 6 0 1 1 328 298 " fill="#3887fc" opacity="1"></path><path d="M340 298A6 6 0 1 1 352 298A6 6 0 1 1 340 298 " fill="#3580f3" opacity="1"></path><path d="M352 298A6 6 0 1 1 364 298A6 6 0 1 1 352 298 " fill="#3279e8" opacity="1"></path><path d="M400 298A6 6 0 1 1 412 298A6 6 0 1 1 400 298 " fill="#255abe" opacity="1"></path><path d="M436 298A6 6 0 1 1 448 298A6 6 0 1 1 436 298 " fill="#1b439d" opacity="1"></path><path d="M472 298A6 6 0 1 1 484 298A6 6 0 1 1 472 298 " fill="#112b7d" opacity="1"></path><path d="M40 310A6 6 0 1 1 52 310A6 6 0 1 1 40 310 " fill="#0e2574" opacity="1"></path><path d="M76 310A6 6 0 1 1 88 310A6 6 0 1 1 76 310 " fill="#173a91" opacity="1"></path><path d="M88 310A6 6 0 1 1 100 310A6 6 0 1 1 88 310 " fill="#1a429c" opacity="1"></path><path d="M160 310A6 6 0 1 1 172 310A6 6 0 1 1 160 310 " fill="#2e6fdb" opacity="1"></path><path d="M172 310A6 6 0 1 1 184 310A6 6 0 1 1 172 310 " fill="#3176e5" opacity="1"></path><path d="M196 310A6 6 0 1 1 208 310A6 6 0 1 1 196 310 " fill="#3784f8" opacity="1"></path><path d="M328 310A6 6 0 1 1 340 310A6 6 0 1 1 328 310 " fill="#3784f7" opacity="1"></path><path d="M352 310A6 6 0 1 1 364 310A6 6 0 1 1 352 310 " fill="#3176e4" opacity="1"></path><path d="M376 310A6 6 0 1 1 388 310A6 6 0 1 1 376 310 " fill="#2a67d0" opacity="1"></path><path d="M400 310A6 6 0 1 1 412 310A6 6 0 1 1 400 310 " fill="#2458bb" opacity="1"></path><path d="M424 310A6 6 0 1 1 436 310A6 6 0 1 1 424 310 " fill="#1d49a6" opacity="1"></path><path d="M436 310A6 6 0 1 1 448 310A6 6 0 1 1 436 310 " fill="#1a419b" opacity="1"></path><path d="M448 310A6 6 0 1 1 460 310A6 6 0 1 1 448 310 " fill="#173990" opacity="1"></path><path d="M460 310A6 6 0 1 1 472 310A6 6 0 1 1 460 310 " fill="#133285" opacity="1"></path><path d="M472 310A6 6 0 1 1 484 310A6 6 0 1 1 472 310 " fill="#102a7b" opacity="1"></path><path d="M40 322A6 6 0 1 1 52 322A6 6 0 1 1 40 322 " fill="#0e2574" opacity="1"></path><path d="M76 322A6 6 0 1 1 88 322A6 6 0 1 1 76 322 " fill="#16388e" opacity="1"></path><path d="M88 322A6 6 0 1 1 100 322A6 6 0 1 1 88 322 " fill="#194099" opacity="1"></path><path d="M100 322A6 6 0 1 1 112 322A6 6 0 1 1 100 322 " fill="#1d47a3" opacity="1"></path><path d="M124 322A6 6 0 1 1 136 322A6 6 0 1 1 124 322 " fill="#2356b8" opacity="1"></path><path d="M148 322A6 6 0 1 1 160 322A6 6 0 1 1 148 322 " fill="#2965cc" opacity="1"></path><path d="M160 322A6 6 0 1 1 172 322A6 6 0 1 1 160 322 " fill="#2c6cd6" opacity="1"></path><path d="M196 322A6 6 0 1 1 208 322A6 6 0 1 1 196 322 " fill="#3580f2" opacity="1"></path><path d="M208 322A6 6 0 1 1 220 322A6 6 0 1 1 208 322 " fill="#3785fa" opacity="1"></path><path d="M256 322A6 6 0 1 1 268 322A6 6 0 1 1 256 322 " fill="#3887fc" opacity="1"></path><path d="M340 322A6 6 0 1 1 352 322A6 6 0 1 1 340 322 " fill="#3279e8" opacity="1"></path><path d="M352 322A6 6 0 1 1 364 322A6 6 0 1 1 352 322 " fill="#2f72df" opacity="1"></path><path d="M388 322A6 6 0 1 1 400 322A6 6 0 1 1 388 322 " fill="#265dc1" opacity="1"></path><path d="M400 322A6 6 0 1 1 412 322A6 6 0 1 1 400 322 " fill="#2355b7" opacity="1"></path><path d="M40 334A6 6 0 1 1 52 334A6 6 0 1 1 40 334 " fill="#0e2574" opacity="1"></path><path d="M52 334A6 6 0 1 1 64 334A6 6 0 1 1 52 334 " fill="#0f2676" opacity="1"></path><path d="M64 334A6 6 0 1 1 76 334A6 6 0 1 1 64 334 " fill="#122e81" opacity="1"></path><path d="M76 334A6 6 0 1 1 88 334A6 6 0 1 1 76 334 " fill="#15368b" opacity="1"></path><path d="M124 334A6 6 0 1 1 136 334A6 6 0 1 1 124 334 " fill="#2253b4" opacity="1"></path><path d="M172 334A6 6 0 1 1 184 334A6 6 0 1 1 172 334 " fill="#2d6eda" opacity="1"></path><path d="M184 334A6 6 0 1 1 196 334A6 6 0 1 1 184 334 " fill="#3074e2" opacity="1"></path><path d="M208 334A6 6 0 1 1 220 334A6 6 0 1 1 208 334 " fill="#357ff2" opacity="1"></path><path d="M232 334A6 6 0 1 1 244 334A6 6 0 1 1 232 334 " fill="#3887fc" opacity="1"></path><path d="M256 334A6 6 0 1 1 268 334A6 6 0 1 1 256 334 " fill="#3887fc" opacity="1"></path><path d="M268 334A6 6 0 1 1 280 334A6 6 0 1 1 268 334 " fill="#3887fc" opacity="1"></path><path d="M292 334A6 6 0 1 1 304 334A6 6 0 1 1 292 334 " fill="#3887fc" opacity="1"></path><path d="M304 334A6 6 0 1 1 316 334A6 6 0 1 1 304 334 " fill="#3784f7" opacity="1"></path><path d="M352 334A6 6 0 1 1 364 334A6 6 0 1 1 352 334 " fill="#2d6ed9" opacity="1"></path><path d="M364 334A6 6 0 1 1 376 334A6 6 0 1 1 364 334 " fill="#2a67d0" opacity="1"></path><path d="M376 334A6 6 0 1 1 388 334A6 6 0 1 1 376 334 " fill="#2760c6" opacity="1"></path><path d="M388 334A6 6 0 1 1 400 334A6 6 0 1 1 388 334 " fill="#2459bd" opacity="1"></path><path d="M400 334A6 6 0 1 1 412 334A6 6 0 1 1 400 334 " fill="#2152b3" opacity="1"></path><path d="M412 334A6 6 0 1 1 424 334A6 6 0 1 1 412 334 " fill="#1e4ba9" opacity="1"></path><path d="M472 334A6 6 0 1 1 484 334A6 6 0 1 1 472 334 " fill="#0e2675" opacity="1"></path><path d="M52 346A6 6 0 1 1 64 346A6 6 0 1 1 52 346 " fill="#0e2574" opacity="1"></path><path d="M76 346A6 6 0 1 1 88 346A6 6 0 1 1 76 346 " fill="#143387" opacity="1"></path><path d="M88 346A6 6 0 1 1 100 346A6 6 0 1 1 88 346 " fill="#173a91" opacity="1"></path><path d="M136 346A6 6 0 1 1 148 346A6 6 0 1 1 136 346 " fill="#2356b8" opacity="1"></path><path d="M172 346A6 6 0 1 1 184 346A6 6 0 1 1 172 346 " fill="#2b69d3" opacity="1"></path><path d="M184 346A6 6 0 1 1 196 346A6 6 0 1 1 184 346 " fill="#2e6fdb" opacity="1"></path><path d="M244 346A6 6 0 1 1 256 346A6 6 0 1 1 244 346 " fill="#3683f6" opacity="1"></path><path d="M256 346A6 6 0 1 1 268 346A6 6 0 1 1 256 346 " fill="#3784f8" opacity="1"></path><path d="M268 346A6 6 0 1 1 280 346A6 6 0 1 1 268 346 " fill="#3784f8" opacity="1"></path><path d="M280 346A6 6 0 1 1 292 346A6 6 0 1 1 280 346 " fill="#3683f6" opacity="1"></path><path d="M316 346A6 6 0 1 1 328 346A6 6 0 1 1 316 346 " fill="#3279e8" opacity="1"></path><path d="M340 346A6 6 0 1 1 352 346A6 6 0 1 1 340 346 " fill="#2d6eda" opacity="1"></path><path d="M352 346A6 6 0 1 1 364 346A6 6 0 1 1 352 346 " fill="#2b69d2" opacity="1"></path><path d="M376 346A6 6 0 1 1 388 346A6 6 0 1 1 376 346 " fill="#265cc0" opacity="1"></path><path d="M400 346A6 6 0 1 1 412 346A6 6 0 1 1 400 346 " fill="#204fae" opacity="1"></path><path d="M460 346A6 6 0 1 1 472 346A6 6 0 1 1 460 346 " fill="#102b7c" opacity="1"></path><path d="M472 346A6 6 0 1 1 484 346A6 6 0 1 1 472 346 " fill="#0e2574" opacity="1"></path><path d="M40 358A6 6 0 1 1 52 358A6 6 0 1 1 40 358 " fill="#0e2574" opacity="1"></path><path d="M64 358A6 6 0 1 1 76 358A6 6 0 1 1 64 358 " fill="#0f2878" opacity="1"></path><path d="M76 358A6 6 0 1 1 88 358A6 6 0 1 1 76 358 " fill="#122f82" opacity="1"></path><path d="M124 358A6 6 0 1 1 136 358A6 6 0 1 1 124 358 " fill="#1e4ba9" opacity="1"></path><path d="M136 358A6 6 0 1 1 148 358A6 6 0 1 1 136 358 " fill="#2152b2" opacity="1"></path><path d="M148 358A6 6 0 1 1 160 358A6 6 0 1 1 148 358 " fill="#2458bb" opacity="1"></path><path d="M184 358A6 6 0 1 1 196 358A6 6 0 1 1 184 358 " fill="#2b69d3" opacity="1"></path><path d="M208 358A6 6 0 1 1 220 358A6 6 0 1 1 208 358 " fill="#2f72df" opacity="1"></path><path d="M220 358A6 6 0 1 1 232 358A6 6 0 1 1 220 358 " fill="#3176e5" opacity="1"></path><path d="M244 358A6 6 0 1 1 256 358A6 6 0 1 1 244 358 " fill="#337beb" opacity="1"></path><path d="M256 358A6 6 0 1 1 268 358A6 6 0 1 1 256 358 " fill="#337ced" opacity="1"></path><path d="M268 358A6 6 0 1 1 280 358A6 6 0 1 1 268 358 " fill="#337ced" opacity="1"></path><path d="M280 358A6 6 0 1 1 292 358A6 6 0 1 1 280 358 " fill="#337beb" opacity="1"></path><path d="M292 358A6 6 0 1 1 304 358A6 6 0 1 1 292 358 " fill="#3279e8" opacity="1"></path><path d="M304 358A6 6 0 1 1 316 358A6 6 0 1 1 304 358 " fill="#3176e4" opacity="1"></path><path d="M352 358A6 6 0 1 1 364 358A6 6 0 1 1 352 358 " fill="#2963ca" opacity="1"></path><path d="M400 358A6 6 0 1 1 412 358A6 6 0 1 1 400 358 " fill="#1e4aa8" opacity="1"></path><path d="M412 358A6 6 0 1 1 424 358A6 6 0 1 1 412 358 " fill="#1b449f" opacity="1"></path><path d="M424 358A6 6 0 1 1 436 358A6 6 0 1 1 424 358 " fill="#183d95" opacity="1"></path><path d="M436 358A6 6 0 1 1 448 358A6 6 0 1 1 436 358 " fill="#15368b" opacity="1"></path><path d="M448 358A6 6 0 1 1 460 358A6 6 0 1 1 448 358 " fill="#122f82" opacity="1"></path><path d="M460 358A6 6 0 1 1 472 358A6 6 0 1 1 460 358 " fill="#0f2878" opacity="1"></path><path d="M472 358A6 6 0 1 1 484 358A6 6 0 1 1 472 358 " fill="#0e2574" opacity="1"></path><path d="M52 370A6 6 0 1 1 64 370A6 6 0 1 1 52 370 " fill="#0e2574" opacity="1"></path><path d="M76 370A6 6 0 1 1 88 370A6 6 0 1 1 76 370 " fill="#112c7d" opacity="1"></path><path d="M88 370A6 6 0 1 1 100 370A6 6 0 1 1 88 370 " fill="#143387" opacity="1"></path><path d="M124 370A6 6 0 1 1 136 370A6 6 0 1 1 124 370 " fill="#1c46a2" opacity="1"></path><path d="M136 370A6 6 0 1 1 148 370A6 6 0 1 1 136 370 " fill="#1f4dab" opacity="1"></path><path d="M160 370A6 6 0 1 1 172 370A6 6 0 1 1 160 370 " fill="#2458bb" opacity="1"></path><path d="M196 370A6 6 0 1 1 208 370A6 6 0 1 1 196 370 " fill="#2a67d0" opacity="1"></path><path d="M208 370A6 6 0 1 1 220 370A6 6 0 1 1 208 370 " fill="#2c6bd6" opacity="1"></path><path d="M232 370A6 6 0 1 1 244 370A6 6 0 1 1 232 370 " fill="#2f71de" opacity="1"></path><path d="M268 370A6 6 0 1 1 280 370A6 6 0 1 1 268 370 " fill="#3074e2" opacity="1"></path><path d="M280 370A6 6 0 1 1 292 370A6 6 0 1 1 280 370 " fill="#2f73e0" opacity="1"></path><path d="M292 370A6 6 0 1 1 304 370A6 6 0 1 1 292 370 " fill="#2f71de" opacity="1"></path><path d="M316 370A6 6 0 1 1 328 370A6 6 0 1 1 316 370 " fill="#2c6bd5" opacity="1"></path><path d="M340 370A6 6 0 1 1 352 370A6 6 0 1 1 340 370 " fill="#2863c9" opacity="1"></path><path d="M352 370A6 6 0 1 1 364 370A6 6 0 1 1 352 370 " fill="#265dc2" opacity="1"></path><path d="M364 370A6 6 0 1 1 376 370A6 6 0 1 1 364 370 " fill="#2458bb" opacity="1"></path><path d="M376 370A6 6 0 1 1 388 370A6 6 0 1 1 376 370 " fill="#2152b3" opacity="1"></path><path d="M400 370A6 6 0 1 1 412 370A6 6 0 1 1 400 370 " fill="#1c46a2" opacity="1"></path><path d="M424 370A6 6 0 1 1 436 370A6 6 0 1 1 424 370 " fill="#16398f" opacity="1"></path><path d="M436 370A6 6 0 1 1 448 370A6 6 0 1 1 436 370 " fill="#143286" opacity="1"></path><path d="M472 370A6 6 0 1 1 484 370A6 6 0 1 1 472 370 " fill="#0e2574" opacity="1"></path><path d="M40 382A6 6 0 1 1 52 382A6 6 0 1 1 40 382 " fill="#0e2574" opacity="1"></path><path d="M160 382A6 6 0 1 1 172 382A6 6 0 1 1 160 382 " fill="#2253b3" opacity="1"></path><path d="M172 382A6 6 0 1 1 184 382A6 6 0 1 1 172 382 " fill="#2458ba" opacity="1"></path><path d="M184 382A6 6 0 1 1 196 382A6 6 0 1 1 184 382 " fill="#265cc1" opacity="1"></path><path d="M196 382A6 6 0 1 1 208 382A6 6 0 1 1 196 382 " fill="#2861c7" opacity="1"></path><path d="M244 382A6 6 0 1 1 256 382A6 6 0 1 1 244 382 " fill="#2c6bd6" opacity="1"></path><path d="M256 382A6 6 0 1 1 268 382A6 6 0 1 1 256 382 " fill="#2c6cd7" opacity="1"></path><path d="M268 382A6 6 0 1 1 280 382A6 6 0 1 1 268 382 " fill="#2c6cd7" opacity="1"></path><path d="M292 382A6 6 0 1 1 304 382A6 6 0 1 1 292 382 " fill="#2b6ad3" opacity="1"></path><path d="M304 382A6 6 0 1 1 316 382A6 6 0 1 1 304 382 " fill="#2a67d0" opacity="1"></path><path d="M328 382A6 6 0 1 1 340 382A6 6 0 1 1 328 382 " fill="#2760c6" opacity="1"></path><path d="M340 382A6 6 0 1 1 352 382A6 6 0 1 1 340 382 " fill="#265cc0" opacity="1"></path><path d="M436 382A6 6 0 1 1 448 382A6 6 0 1 1 436 382 " fill="#122e80" opacity="1"></path><path d="M472 382A6 6 0 1 1 484 382A6 6 0 1 1 472 382 " fill="#0e2574" opacity="1"></path><path d="M136 394A6 6 0 1 1 148 394A6 6 0 1 1 136 394 " fill="#1a429c" opacity="1"></path><path d="M148 394A6 6 0 1 1 160 394A6 6 0 1 1 148 394 " fill="#1d47a4" opacity="1"></path><path d="M184 394A6 6 0 1 1 196 394A6 6 0 1 1 184 394 " fill="#2356b8" opacity="1"></path><path d="M208 394A6 6 0 1 1 220 394A6 6 0 1 1 208 394 " fill="#265dc2" opacity="1"></path><path d="M232 394A6 6 0 1 1 244 394A6 6 0 1 1 232 394 " fill="#2862c9" opacity="1"></path><path d="M244 394A6 6 0 1 1 256 394A6 6 0 1 1 244 394 " fill="#2963cb" opacity="1"></path><path d="M280 394A6 6 0 1 1 292 394A6 6 0 1 1 280 394 " fill="#2963cb" opacity="1"></path><path d="M304 394A6 6 0 1 1 316 394A6 6 0 1 1 304 394 " fill="#2760c5" opacity="1"></path><path d="M328 394A6 6 0 1 1 340 394A6 6 0 1 1 328 394 " fill="#2459bd" opacity="1"></path><path d="M352 394A6 6 0 1 1 364 394A6 6 0 1 1 352 394 " fill="#2151b1" opacity="1"></path><path d="M460 394A6 6 0 1 1 472 394A6 6 0 1 1 460 394 " fill="#0e2574" opacity="1"></path><path d="M472 394A6 6 0 1 1 484 394A6 6 0 1 1 472 394 " fill="#0e2574" opacity="1"></path><path d="M148 406A6 6 0 1 1 160 406A6 6 0 1 1 148 406 " fill="#1a419b" opacity="1"></path><path d="M160 406A6 6 0 1 1 172 406A6 6 0 1 1 160 406 " fill="#1c46a2" opacity="1"></path><path d="M184 406A6 6 0 1 1 196 406A6 6 0 1 1 184 406 " fill="#204fae" opacity="1"></path><path d="M220 406A6 6 0 1 1 232 406A6 6 0 1 1 220 406 " fill="#2458bb" opacity="1"></path><path d="M244 406A6 6 0 1 1 256 406A6 6 0 1 1 244 406 " fill="#255cc0" opacity="1"></path><path d="M256 406A6 6 0 1 1 268 406A6 6 0 1 1 256 406 " fill="#265cc1" opacity="1"></path><path d="M280 406A6 6 0 1 1 292 406A6 6 0 1 1 280 406 " fill="#255bc0" opacity="1"></path><path d="M304 406A6 6 0 1 1 316 406A6 6 0 1 1 304 406 " fill="#2458bb" opacity="1"></path><path d="M328 406A6 6 0 1 1 340 406A6 6 0 1 1 328 406 " fill="#2152b3" opacity="1"></path><path d="M340 406A6 6 0 1 1 352 406A6 6 0 1 1 340 406 " fill="#204fae" opacity="1"></path><path d="M364 406A6 6 0 1 1 376 406A6 6 0 1 1 364 406 " fill="#1c46a2" opacity="1"></path><path d="M448 406A6 6 0 1 1 460 406A6 6 0 1 1 448 406 " fill="#0e2574" opacity="1"></path><path d="M460 406A6 6 0 1 1 472 406A6 6 0 1 1 460 406 " fill="#0e2574" opacity="1"></path><path d="M472 406A6 6 0 1 1 484 406A6 6 0 1 1 472 406 " fill="#0e2574" opacity="1"></path><path d="M136 418A6 6 0 1 1 148 418A6 6 0 1 1 136 418 " fill="#15368c" opacity="1"></path><path d="M148 418A6 6 0 1 1 160 418A6 6 0 1 1 148 418 " fill="#183b93" opacity="1"></path><path d="M160 418A6 6 0 1 1 172 418A6 6 0 1 1 160 418 " fill="#194099" opacity="1"></path><path d="M172 418A6 6 0 1 1 184 418A6 6 0 1 1 172 418 " fill="#1b449f" opacity="1"></path><path d="M208 418A6 6 0 1 1 220 418A6 6 0 1 1 208 418 " fill="#204ead" opacity="1"></path><path d="M220 418A6 6 0 1 1 232 418A6 6 0 1 1 220 418 " fill="#2151b1" opacity="1"></path><path d="M244 418A6 6 0 1 1 256 418A6 6 0 1 1 244 418 " fill="#2254b5" opacity="1"></path><path d="M280 418A6 6 0 1 1 292 418A6 6 0 1 1 280 418 " fill="#2254b5" opacity="1"></path><path d="M292 418A6 6 0 1 1 304 418A6 6 0 1 1 292 418 " fill="#2152b3" opacity="1"></path><path d="M316 418A6 6 0 1 1 328 418A6 6 0 1 1 316 418 " fill="#204ead" opacity="1"></path><path d="M328 418A6 6 0 1 1 340 418A6 6 0 1 1 328 418 " fill="#1e4ba9" opacity="1"></path><path d="M340 418A6 6 0 1 1 352 418A6 6 0 1 1 340 418 " fill="#1d48a4" opacity="1"></path><path d="M352 418A6 6 0 1 1 364 418A6 6 0 1 1 352 418 " fill="#1b449f" opacity="1"></path><path d="M460 418A6 6 0 1 1 472 418A6 6 0 1 1 460 418 " fill="#0e2574" opacity="1"></path><path d="M472 418A6 6 0 1 1 484 418A6 6 0 1 1 472 418 " fill="#0e2574" opacity="1"></path><path d="M136 430A6 6 0 1 1 148 430A6 6 0 1 1 136 430 " fill="#133083" opacity="1"></path><path d="M160 430A6 6 0 1 1 172 430A6 6 0 1 1 160 430 " fill="#173990" opacity="1"></path><path d="M172 430A6 6 0 1 1 184 430A6 6 0 1 1 172 430 " fill="#183d96" opacity="1"></path><path d="M196 430A6 6 0 1 1 208 430A6 6 0 1 1 196 430 " fill="#1b449f" opacity="1"></path><path d="M220 430A6 6 0 1 1 232 430A6 6 0 1 1 220 430 " fill="#1d49a6" opacity="1"></path><path d="M292 430A6 6 0 1 1 304 430A6 6 0 1 1 292 430 " fill="#1e4ba8" opacity="1"></path><path d="M316 430A6 6 0 1 1 328 430A6 6 0 1 1 316 430 " fill="#1c47a3" opacity="1"></path><path d="M328 430A6 6 0 1 1 340 430A6 6 0 1 1 328 430 " fill="#1b449f" opacity="1"></path><path d="M340 430A6 6 0 1 1 352 430A6 6 0 1 1 340 430 " fill="#1a419a" opacity="1"></path><path d="M436 430A6 6 0 1 1 448 430A6 6 0 1 1 436 430 " fill="#0e2574" opacity="1"></path><path d="M472 430A6 6 0 1 1 484 430A6 6 0 1 1 472 430 " fill="#0e2574" opacity="1"></path><path d="M172 442A6 6 0 1 1 184 442A6 6 0 1 1 172 442 " fill="#15368c" opacity="1"></path><path d="M220 442A6 6 0 1 1 232 442A6 6 0 1 1 220 442 " fill="#1a419b" opacity="1"></path><path d="M256 442A6 6 0 1 1 268 442A6 6 0 1 1 256 442 " fill="#1b44a0" opacity="1"></path><path d="M268 442A6 6 0 1 1 280 442A6 6 0 1 1 268 442 " fill="#1b44a0" opacity="1"></path><path d="M280 442A6 6 0 1 1 292 442A6 6 0 1 1 280 442 " fill="#1b449f" opacity="1"></path><path d="M292 442A6 6 0 1 1 304 442A6 6 0 1 1 292 442 " fill="#1b439d" opacity="1"></path><path d="M316 442A6 6 0 1 1 328 442A6 6 0 1 1 316 442 " fill="#193f98" opacity="1"></path><path d="M328 442A6 6 0 1 1 340 442A6 6 0 1 1 328 442 " fill="#183c94" opacity="1"></path><path d="M340 442A6 6 0 1 1 352 442A6 6 0 1 1 340 442 " fill="#173990" opacity="1"></path><path d="M352 442A6 6 0 1 1 364 442A6 6 0 1 1 352 442 " fill="#15368b" opacity="1"></path><path d="M376 442A6 6 0 1 1 388 442A6 6 0 1 1 376 442 " fill="#122e80" opacity="1"></path><path d="M388 442A6 6 0 1 1 400 442A6 6 0 1 1 388 442 " fill="#10297a" opacity="1"></path><path d="M412 442A6 6 0 1 1 424 442A6 6 0 1 1 412 442 " fill="#0e2574" opacity="1"></path><path d="M424 442A6 6 0 1 1 436 442A6 6 0 1 1 424 442 " fill="#0e2574" opacity="1"></path><path d="M460 442A6 6 0 1 1 472 442A6 6 0 1 1 460 442 " fill="#0e2574" opacity="1"></path><path d="M472 442A6 6 0 1 1 484 442A6 6 0 1 1 472 442 " fill="#0e2574" opacity="1"></path><path d="M136 454A6 6 0 1 1 148 454A6 6 0 1 1 136 454 " fill="#0e2574" opacity="1"></path><path d="M148 454A6 6 0 1 1 160 454A6 6 0 1 1 148 454 " fill="#0f2777" opacity="1"></path><path d="M196 454A6 6 0 1 1 208 454A6 6 0 1 1 196 454 " fill="#15358a" opacity="1"></path><path d="M232 454A6 6 0 1 1 244 454A6 6 0 1 1 232 454 " fill="#173b92" opacity="1"></path><path d="M244 454A6 6 0 1 1 256 454A6 6 0 1 1 244 454 " fill="#183c94" opacity="1"></path><path d="M268 454A6 6 0 1 1 280 454A6 6 0 1 1 268 454 " fill="#183c95" opacity="1"></path><path d="M316 454A6 6 0 1 1 328 454A6 6 0 1 1 316 454 " fill="#16378d" opacity="1"></path><path d="M328 454A6 6 0 1 1 340 454A6 6 0 1 1 328 454 " fill="#15358a" opacity="1"></path><path d="M352 454A6 6 0 1 1 364 454A6 6 0 1 1 352 454 " fill="#122f82" opacity="1"></path><path d="M364 454A6 6 0 1 1 376 454A6 6 0 1 1 364 454 " fill="#112b7c" opacity="1"></path><path d="M388 454A6 6 0 1 1 400 454A6 6 0 1 1 388 454 " fill="#0e2574" opacity="1"></path><path d="M424 454A6 6 0 1 1 436 454A6 6 0 1 1 424 454 " fill="#0e2574" opacity="1"></path><path d="M448 454A6 6 0 1 1 460 454A6 6 0 1 1 448 454 " fill="#0e2574" opacity="1"></path><path d="M472 454A6 6 0 1 1 484 454A6 6 0 1 1 472 454 " fill="#0e2574" opacity="1"></path><path d="M172 466A6 6 0 1 1 184 466A6 6 0 1 1 172 466 " fill="#0f2878" opacity="1"></path><path d="M184 466A6 6 0 1 1 196 466A6 6 0 1 1 184 466 " fill="#112b7c" opacity="1"></path><path d="M196 466A6 6 0 1 1 208 466A6 6 0 1 1 196 466 " fill="#122e80" opacity="1"></path><path d="M220 466A6 6 0 1 1 232 466A6 6 0 1 1 220 466 " fill="#133286" opacity="1"></path><path d="M232 466A6 6 0 1 1 244 466A6 6 0 1 1 232 466 " fill="#143388" opacity="1"></path><path d="M256 466A6 6 0 1 1 268 466A6 6 0 1 1 256 466 " fill="#15358a" opacity="1"></path><path d="M292 466A6 6 0 1 1 304 466A6 6 0 1 1 292 466 " fill="#143387" opacity="1"></path><path d="M328 466A6 6 0 1 1 340 466A6 6 0 1 1 328 466 " fill="#122d80" opacity="1"></path><path d="M340 466A6 6 0 1 1 352 466A6 6 0 1 1 340 466 " fill="#102b7c" opacity="1"></path><path d="M376 466A6 6 0 1 1 388 466A6 6 0 1 1 376 466 " fill="#0e2574" opacity="1"></path><path d="M400 466A6 6 0 1 1 412 466A6 6 0 1 1 400 466 " fill="#0e2574" opacity="1"></path><path d="M412 466A6 6 0 1 1 424 466A6 6 0 1 1 412 466 " fill="#0e2574" opacity="1"></path><path d="M424 466A6 6 0 1 1 436 466A6 6 0 1 1 424 466 " fill="#0e2574" opacity="1"></path><path d="M460 466A6 6 0 1 1 472 466A6 6 0 1 1 460 466 " fill="#0e2574" opacity="1"></path><path d="M148 478A6 6 0 1 1 160 478A6 6 0 1 1 148 478 " fill="#0e2574" opacity="1"></path><path d="M172 478A6 6 0 1 1 184 478A6 6 0 1 1 172 478 " fill="#0e2574" opacity="1"></path><path d="M184 478A6 6 0 1 1 196 478A6 6 0 1 1 184 478 " fill="#0e2574" opacity="1"></path><path d="M196 478A6 6 0 1 1 208 478A6 6 0 1 1 196 478 " fill="#0e2675" opacity="1"></path><path d="M220 478A6 6 0 1 1 232 478A6 6 0 1 1 220 478 " fill="#102a7b" opacity="1"></path><path d="M232 478A6 6 0 1 1 244 478A6 6 0 1 1 232 478 " fill="#112b7d" opacity="1"></path><path d="M280 478A6 6 0 1 1 292 478A6 6 0 1 1 280 478 " fill="#112c7e" opacity="1"></path><path d="M292 478A6 6 0 1 1 304 478A6 6 0 1 1 292 478 " fill="#112b7d" opacity="1"></path><path d="M304 478A6 6 0 1 1 316 478A6 6 0 1 1 304 478 " fill="#102a7b" opacity="1"></path><path d="M316 478A6 6 0 1 1 328 478A6 6 0 1 1 316 478 " fill="#0f2878" opacity="1"></path><path d="M328 478A6 6 0 1 1 340 478A6 6 0 1 1 328 478 " fill="#0e2675" opacity="1"></path><path d="M340 478A6 6 0 1 1 352 478A6 6 0 1 1 340 478 " fill="#0e2574" opacity="1"></path><path d="M364 478A6 6 0 1 1 376 478A6 6 0 1 1 364 478 " fill="#0e2574" opacity="1"></path><path d="M376 478A6 6 0 1 1 388 478A6 6 0 1 1 376 478 " fill="#0e2574" opacity="1"></path><path d="M412 478A6 6 0 1 1 424 478A6 6 0 1 1 412 478 " fill="#0e2574" opacity="1"></path><path d="M460 478A6 6 0 1 1 472 478A6 6 0 1 1 460 478 " fill="#0e2574" opacity="1"></path><path d="M472 478A6 6 0 1 1 484 478A6 6 0 1 1 472 478 " fill="#0e2574" opacity="1"></path><path d="M46 46H94A24 24 0 0 1 118 70V118H70A24 24 0 0 1 46 94V46Z " fill="none" stroke-width="12" stroke="#0e2574"></path><path d="M406 46H454A24 24 0 0 1 478 70V118H430A24 24 0 0 1 406 94V46Z " fill="none" stroke-width="12" stroke="#0e2574"></path><path d="M46 406H94A24 24 0 0 1 118 430V478H70A24 24 0 0 1 46 454V406Z " fill="none" stroke-width="12" stroke="#0e2574"></path><path d="M64 64H82L100 82V100H82L64 82 " fill="#0e2574" opacity="1"></path><path d="M64 82A18 18 0 1 1 100 82A18 18 0 1 1 64 82 " fill="#0e2574" opacity="1"></path><path d="M424 64H442L460 82V100H442L424 82 " fill="#0e2574" opacity="1"></path><path d="M424 82A18 18 0 1 1 460 82A18 18 0 1 1 424 82 " fill="#0e2574" opacity="1"></path><path d="M64 424H82L100 442V460H82L64 442 " fill="#0e2574" opacity="1"></path><path d="M64 442A18 18 0 1 1 100 442A18 18 0 1 1 64 442 " fill="#0e2574" opacity="1"></path><path d="M136 118A6 6 0 1 1 148 118A6 6 0 1 1 136 118 " fill="#183c94" opacity="1"></path><path d="M112 142A6 6 0 1 1 124 142A6 6 0 1 1 112 142 " fill="#183c94" opacity="1"></path><path d="M160 118A6 6 0 1 1 172 118A6 6 0 1 1 160 118 " fill="#1c46a2" opacity="1"></path><path d="M112 166A6 6 0 1 1 124 166A6 6 0 1 1 112 166 " fill="#1c46a2" opacity="1"></path><path d="M184 118A6 6 0 1 1 196 118A6 6 0 1 1 184 118 " fill="#204ead" opacity="1"></path><path d="M112 190A6 6 0 1 1 124 190A6 6 0 1 1 112 190 " fill="#204ead" opacity="1"></path><path d="M208 118A6 6 0 1 1 220 118A6 6 0 1 1 208 118 " fill="#2254b5" opacity="1"></path><path d="M112 214A6 6 0 1 1 124 214A6 6 0 1 1 112 214 " fill="#2254b5" opacity="1"></path><path d="M232 118A6 6 0 1 1 244 118A6 6 0 1 1 232 118 " fill="#2458ba" opacity="1"></path><path d="M112 238A6 6 0 1 1 124 238A6 6 0 1 1 112 238 " fill="#2458ba" opacity="1"></path><path d="M256 118A6 6 0 1 1 268 118A6 6 0 1 1 256 118 " fill="#2459bc" opacity="1"></path><path d="M112 262A6 6 0 1 1 124 262A6 6 0 1 1 112 262 " fill="#2459bc" opacity="1"></path><path d="M280 118A6 6 0 1 1 292 118A6 6 0 1 1 280 118 " fill="#2458ba" opacity="1"></path><path d="M112 286A6 6 0 1 1 124 286A6 6 0 1 1 112 286 " fill="#2458ba" opacity="1"></path><path d="M304 118A6 6 0 1 1 316 118A6 6 0 1 1 304 118 " fill="#2254b5" opacity="1"></path><path d="M112 310A6 6 0 1 1 124 310A6 6 0 1 1 112 310 " fill="#2254b5" opacity="1"></path><path d="M328 118A6 6 0 1 1 340 118A6 6 0 1 1 328 118 " fill="#1f4eac" opacity="1"></path><path d="M112 334A6 6 0 1 1 124 334A6 6 0 1 1 112 334 " fill="#1f4eac" opacity="1"></path><path d="M352 118A6 6 0 1 1 364 118A6 6 0 1 1 352 118 " fill="#1c45a1" opacity="1"></path><path d="M112 358A6 6 0 1 1 124 358A6 6 0 1 1 112 358 " fill="#1c45a1" opacity="1"></path><path d="M376 118A6 6 0 1 1 388 118A6 6 0 1 1 376 118 " fill="#183c94" opacity="1"></path><path d="M112 382A6 6 0 1 1 124 382A6 6 0 1 1 112 382 " fill="#183c94" opacity="1"></path><path d="M376 382A6 6 0 1 1 388 382A6 6 0 1 1 376 382 " fill="#1d47a3" opacity="1"></path><path d="M376 394A6 6 0 1 1 388 394A6 6 0 1 1 376 394 " fill="#1d47a3" opacity="1"></path><path d="M376 406A6 6 0 1 1 388 406A6 6 0 1 1 376 406 " fill="#1d47a3" opacity="1"></path><path d="M376 418A6 6 0 1 1 388 418A6 6 0 1 1 376 418 " fill="#1d47a3" opacity="1"></path><path d="M424 394A6 6 0 1 1 436 394A6 6 0 1 1 424 394 " fill="#102a7b" opacity="1"></path><path d="M424 406A6 6 0 1 1 436 406A6 6 0 1 1 424 406 " fill="#102a7b" opacity="1"></path><path d="M424 418A6 6 0 1 1 436 418A6 6 0 1 1 424 418 " fill="#102a7b" opacity="1"></path><path d="M424 430A6 6 0 1 1 436 430A6 6 0 1 1 424 430 " fill="#102a7b" opacity="1"></path><path d="M388 382A6 6 0 1 1 400 382A6 6 0 1 1 388 382 " fill="#1a419b" opacity="1"></path><path d="M400 382A6 6 0 1 1 412 382A6 6 0 1 1 400 382 " fill="#1a419b" opacity="1"></path><path d="M412 382A6 6 0 1 1 424 382A6 6 0 1 1 412 382 " fill="#1a419b" opacity="1"></path><path d="M424 382A6 6 0 1 1 436 382A6 6 0 1 1 424 382 " fill="#1a419b" opacity="1"></path><path d="M376 430A6 6 0 1 1 388 430A6 6 0 1 1 376 430 " fill="#122f82" opacity="1"></path><path d="M388 430A6 6 0 1 1 400 430A6 6 0 1 1 388 430 " fill="#122f82" opacity="1"></path><path d="M400 430A6 6 0 1 1 412 430A6 6 0 1 1 400 430 " fill="#122f82" opacity="1"></path><path d="M412 430A6 6 0 1 1 424 430A6 6 0 1 1 412 430 " fill="#122f82" opacity="1"></path><path d="M400 406A6 6 0 1 1 412 406A6 6 0 1 1 400 406 " fill="#133184" opacity="1"></path><rect width="117.68" height="117.68" fill="#ffffff" x="203.16" y="203.16" rx="8" ry="8"></rect><svg fill="#000" viewBox="0 0 288 288" x="208.16" y="208.16" width="97.68" height="97.68" xmlns="http://www.w3.org/2000/svg" xmlns:xlink="http://www.w3.org/1999/xlink"><defs><filter x="-14.3%" y="-10.4%" width="128.5%" height="128.5%" filterUnits="objectBoundingBox" id="filter-2"><feOffset dy="10" in="SourceAlpha" result="shadowOffsetOuter1"></feOffset><feGaussianBlur stdDeviation="10.5" in="shadowOffsetOuter1" result="shadowBlurOuter1"></feGaussianBlur><feColorMatrix values="0 0 0 0 0 0 0 0 0 0 0 0 0 0 0 0 0 0 0.15 0" in="shadowBlurOuter1"></feColorMatrix></filter><path id="path-1" d="M0 0h256v256H0z"></path></defs><g id="Social-Icons" stroke="none" stroke-width="1" fill="none" fill-rule="evenodd"><g id="Desktop-HD" transform="translate(-1740 -128)"><g id="Google-bussiness" transform="translate(1761 139)"><g id="Bussiness"><g id="Instagram"><g id="Twitter"><g id="Facebook"><g id="Rectangle"><use fill="#000" filter="url(#filter-2)" xlink:href="#path-1"></use><use fill="#FFF" xlink:href="#path-1"></use></g></g><g id="twitter-(2)" transform="translate(58 73)" fill="#FFF" fill-rule="nonzero"><path d="M.29 101.5c12.704 8.057 27.773 12.72 43.927 12.72 45.383 0 82.172-36.793 82.172-82.172 0-1.133-.024-2.258-.067-3.379 1.641-1.292 11.794-9.429 14.282-14.66 0 0-8.244 3.426-16.313 4.233-.016 0-.036.004-.052.004 0 0 .016-.008.044-.027.743-.497 11.138-7.573 12.545-16.004 0 0-5.831 3.113-13.996 5.836-1.352.449-2.767.89-4.226 1.3C113.343 3.733 105.863.227 97.56.227 81.63.228 68.724 13.13 68.724 29.047c0 2.245.258 4.431.747 6.53-2.226-.091-36.12-1.991-59.18-29.916 0 0-13.781 18.814 8.213 38.16 0 0-6.686-.266-12.454-3.712 0 0-2.119 22.792 22.789 28.62 0 0-4.902 1.856-12.72.533 0 0 4.372 18.416 26.501 20.137 0 0-17.498 15.808-42.338 12.099l.007.002z" id="Path"></path></g></g><g id="youtube" transform="translate(71 59)" fill="#FFF" fill-rule="nonzero"><g id="Group" transform="translate(.535 .388)"><path d="M71.733 95.807c-.004-.712-.213-1.453-.477-2.119-.352-.875-1.106-1.311-2.052-1.403-1.11-.11-1.998.34-2.803 1.051-.322.28-.469.7-.469.7l.017 22.606v.557s.193.26.222.293c.653.708 1.416 1.269 2.392 1.47 1.608.33 2.743-.34 3.057-1.83a5.47 5.47 0 00.126-1.14c.008-6.73.021-13.458-.013-20.185zm0 0c-.004-.712-.213-1.453-.477-2.119-.352-.875-1.106-1.311-2.052-1.403-1.11-.11-1.998.34-2.803 1.051-.322.28-.469.7-.469.7l.017 22.606v.557s.193.26.222.293c.653.708 1.416 1.269 2.392 1.47 1.608.33 2.743-.34 3.057-1.83a5.47 5.47 0 00.126-1.14c.008-6.73.021-13.458-.013-20.185zm25.312-34.09a1871.82 1871.82 0 00-80.274 0C7.489 61.912.067 69.502.067 78.788v41.786c0 9.29 7.422 16.88 16.704 17.077 26.756.573 53.522.573 80.274 0 9.286-.197 16.708-7.787 16.708-17.077V78.789c0-9.286-7.422-16.876-16.708-17.073zM24.63 124.381h-7.716V80.767H8.925V73.47h23.708v7.28h-8.004v43.632zm27.61-18.103v18.107h-6.83v-4.138c-.248.264-.386.406-.516.553-1.47 1.658-3.137 3.04-5.265 3.774-1.039.356-2.107.477-3.2.289-1.491-.247-2.492-1.106-3.096-2.463-.56-1.253-.703-2.593-.707-3.942-.017-4.984-.009-31.364-.009-31.62h6.815c.013.231.038 19.168.042 28.404 0 .502.004 1.017.105 1.507.25 1.24 1.202 1.772 2.396 1.337 1.373-.503 2.42-1.45 3.3-2.585.13-.163.13-.456.13-.69V86.797l6.836-.017v19.498zm25.991 14.488c-.913 2.748-2.924 4.147-5.814 4.118-2.35-.021-4.255-.955-5.826-2.66-.176-.189-.662-.704-.662-.704v2.857h-6.844V73.465h6.844v16.759s.385-.77.737-1.169c1.06-1.185 2.35-2.102 3.942-2.504 2.626-.658 5.654.155 7.095 3.225.85 1.814 1.09 3.749 1.09 5.717.012 7.117.012 14.233.003 21.35-.004 1.332-.142 2.647-.565 3.924zm25.278-1.432c-1.185 3.473-3.636 5.4-7.23 5.927-2.228.327-4.435.28-6.525-.666-2.861-1.29-4.482-3.623-5.177-6.593a19.883 19.883 0 01-.499-4.251c-.054-5.575-.029-11.154-.016-16.73.004-2.915.699-5.604 2.697-7.836 2.279-2.551 5.194-3.502 8.524-3.288 1 .062 2.023.226 2.974.54 3.237 1.064 4.967 3.49 5.646 6.706.26 1.24.356 2.526.377 3.795.054 2.974-.021 9.529-.021 9.529H91.152v9.395a3.051 3.051 0 106.103 0v-4.83h7.04s.105 5.701-.787 8.302zm-6.253-23.967a3.053 3.053 0 00-3.05-3.053 3.054 3.054 0 00-3.053 3.053v5.274h6.103v-5.274zm-25.999-1.68c-.352-.875-1.106-1.31-2.052-1.403-1.11-.109-1.998.34-2.803 1.052-.322.28-.469.7-.469.7l.017 22.605v.557s.193.26.222.293c.653.708 1.416 1.27 2.392 1.47 1.608.331 2.743-.339 3.057-1.83.08-.373.126-.758.126-1.14.008-6.73.021-13.457-.013-20.184-.004-.713-.213-1.454-.477-2.12z" id="Shape"></path><path d="M88.75 13.4l-.001 37.799h-7.004l.008-4.061c-.774.763-1.435 1.475-2.162 2.115-1.287 1.135-2.746 1.98-4.452 2.314-2.619.512-4.85-.316-5.685-3.028a9.984 9.984 0 01-.453-2.82v-32.32h6.951v28.827c0 .382.03.768.098 1.142.21 1.188 1.089 1.747 2.233 1.35 1.394-.482 2.458-1.447 3.36-2.585.129-.162.106-.466.106-.704v-28.03h7.002zm-57.931 6.568A17315.93 17315.93 0 0126.113.029h-7.97s6.123 20.31 8.862 29.367c.098.328.143.683.143 1.026l-.003 20.769h7.35l-.003-20.769c0-.343.045-.698.144-1.026C37.374 20.339 43.498.029 43.498.029h-7.97s-3.186 13.53-4.706 19.939h-.003z" id="Path"></path><path d="M53.091 12.453c-5.539 0-10.029 4.49-10.029 10.03V42.11c0 5.539 4.49 10.029 10.03 10.029 5.538 0 10.028-4.49 10.028-10.03V22.483c0-5.539-4.49-10.029-10.029-10.029zm2.895 30.053a2.897 2.897 0 01-2.894 2.894 2.897 2.897 0 01-2.894-2.894v-20.42a2.897 2.897 0 012.894-2.894 2.898 2.898 0 012.894 2.894v20.42z" id="Shape"></path></g></g></g><g id="linkedin" transform="translate(61 61)" fill="#FFF" fill-rule="nonzero"><g id="Group" transform="translate(.482 .901)"><path d="M16.442.09c8.743.007 15.954 7.228 15.935 16.015-.02 9.2-7.656 16.134-16.042 15.934C7.828 32.212.353 25.107.355 16.044.355 7.254 7.594.084 16.442.09zm9.289 132.886H6.999a4.402 4.402 0 01-4.402-4.402v-79.91A4.402 4.402 0 017 44.26h18.732a4.402 4.402 0 014.402 4.402v79.911a4.402 4.402 0 01-4.402 4.402zM133.568 72.33c0-16.753-13.581-30.334-30.334-30.334H98.43c-9.166 0-17.263 4.573-22.134 11.563a26.911 26.911 0 00-1.474 2.37 2.022 2.022 0 00-.251-.032v-9.809a1.828 1.828 0 00-1.828-1.827h-23.37a1.828 1.828 0 00-1.827 1.827v85.061c0 1.01.817 1.827 1.826 1.828l23.88.005c1.01 0 1.828-.818 1.828-1.827V82.013c0-8.494 6.775-15.548 15.269-15.643a15.394 15.394 0 0111.1 4.523 15.396 15.396 0 014.525 10.923v49.345c0 1.01.818 1.827 1.826 1.828l23.939.006c1.01 0 1.828-.818 1.828-1.828V72.33z" id="Path"></path></g></g></g><g id="business" transform="translate(33 45)" fill-rule="nonzero"><path d="M179.525 63.167v92.602c0 6.167-4.995 11.164-11.172 11.164H22.642c-6.172 0-11.172-4.997-11.172-11.164V63.167a23.254 23.254 0 0011.872 3.236A23.299 23.299 0 0038.82 60.54a23.255 23.255 0 007.697-14.64l.797-6.542a25.234 25.234 0 00-.178 2.93c0 13.125 10.678 24.116 24.182 24.116 13.356 0 24.182-10.818 24.182-24.159 0 13.341 10.822 24.16 24.177 24.16 13.514 0 24.187-10.992 24.187-24.126 0-.954-.057-1.918-.177-2.897l.796 6.518a23.275 23.275 0 007.693 14.64 23.309 23.309 0 0015.477 5.865c4.335 0 8.394-1.18 11.873-3.237z" id="Path" fill="#518EF8"></path><path d="M179.525 81.407v11.187a23.254 23.254 0 01-11.872 3.237 23.309 23.309 0 01-15.477-5.865 23.275 23.275 0 01-7.693-14.64l-.796-6.517c.12.978.177 1.942.177 2.896 0 13.135-10.672 24.126-24.186 24.126-13.356 0-24.178-10.819-24.178-24.16 0 13.342-10.826 24.16-24.182 24.16-13.504 0-24.182-10.991-24.182-24.116 0-.964.063-1.947.178-2.93l-.797 6.54a23.259 23.259 0 01-7.697 14.641 23.3 23.3 0 01-15.477 5.865c-4.333 0-8.393-1.18-11.872-3.237V81.407a23.254 23.254 0 0011.872 3.236A23.299 23.299 0 0038.82 78.78a23.255 23.255 0 007.697-14.64l.797-6.542a25.234 25.234 0 00-.178 2.93c0 13.125 10.678 24.116 24.182 24.116 13.356 0 24.182-10.818 24.182-24.159 0 13.341 10.822 24.16 24.178 24.16 13.514 0 24.186-10.992 24.186-24.126 0-.955-.057-1.919-.177-2.897l.796 6.517a23.275 23.275 0 007.693 14.64 23.309 23.309 0 0015.477 5.866c4.334 0 8.393-1.18 11.872-3.237z" id="Path" fill="#4786E2"></path><g id="Group" fill="#ACD1FC"><path d="M143.687 58.341c.12.978.177 1.942.177 2.897 0 13.134-10.672 24.125-24.186 24.125-13.356 0-24.178-10.818-24.178-24.159L83.983 33.116 95.5.066h41.08l12.349 33.088-5.247 25.125a.26.26 0 01.005.062zM54.416.067l10.69 36.314-17.788 21.898-.8 6.58a23.259 23.259 0 01-7.698 14.64 23.3 23.3 0 01-15.477 5.864c-4.333 0-8.394-1.18-11.873-3.236v-.005C4.602 78.065 0 70.588 0 62.038v-1.73L15.9 5.895A8.103 8.103 0 0123.68.067h30.736z" id="Path"></path></g><g id="Group" transform="translate(47.004)" fill="#3A5BBC"><path d="M132.522 82.126a23.254 23.254 0 01-11.873 3.237 23.309 23.309 0 01-15.477-5.865 23.275 23.275 0 01-7.693-14.64l-.796-6.517c0-.02 0-.043-.005-.062L89.576.067h30.737c3.6 0 6.77 2.374 7.78 5.828l15.903 54.412v1.731c0 8.55-4.607 16.027-11.474 20.088zM48.496.067v61.137c0 13.341-10.826 24.16-24.182 24.16C10.81 85.363.132 74.371.132 61.246c0-.964.062-1.947.178-2.93 0-.015.004-.024.004-.038L7.412.067h41.084z" id="Path"></path></g><path d="M143.514 154.134c-13.236 0-24.004-10.76-24.004-23.986s10.768-23.987 24.004-23.987c6.414 0 12.443 2.495 16.976 7.024l-5.09 5.086a16.704 16.704 0 00-11.886-4.917c-9.266 0-16.806 7.533-16.806 16.793 0 9.26 7.54 16.794 16.806 16.794 8.032 0 14.766-5.66 16.418-13.197h-16.418v-7.193h24.005v3.596c0 13.227-10.769 23.987-24.005 23.987z" id="Path" fill="#FFF"></path></g></g></g></g></svg></svg>